<svg width="90" height="40" viewBox="0 0 90 40" fill="none" xmlns="http://www.w3.org/2000/svg">
<path d="M12.2388 31.98C9.99875 31.98 7.85208 31.6867 5.79875 31.1C3.74542 30.4867 2.09208 29.7 0.83875 28.74L3.03875 23.86C4.23875 24.7133 5.65208 25.42 7.27875 25.98C8.93208 26.5133 10.5988 26.78 12.2788 26.78C13.5588 26.78 14.5854 26.66 15.3588 26.42C16.1588 26.1533 16.7454 25.7933 17.1188 25.34C17.4921 24.8867 17.6788 24.3667 17.6788 23.78C17.6788 23.0333 17.3854 22.4467 16.7988 22.02C16.2121 21.5667 15.4388 21.2067 14.4788 20.94C13.5188 20.6467 12.4521 20.38 11.2788 20.14C10.1321 19.8733 8.97208 19.5533 7.79875 19.18C6.65208 18.8067 5.59875 18.3267 4.63875 17.74C3.67875 17.1533 2.89208 16.38 2.27875 15.42C1.69208 14.46 1.39875 13.2333 1.39875 11.74C1.39875 10.14 1.82542 8.68667 2.67875 7.38C3.55875 6.04666 4.86542 4.99333 6.59875 4.22C8.35875 3.42 10.5588 3.02 13.1988 3.02C14.9588 3.02 16.6921 3.23333 18.3988 3.66C20.1054 4.06 21.6121 4.67333 22.9188 5.5L20.9188 10.42C19.6121 9.67333 18.3054 9.12667 16.9988 8.78C15.6921 8.40667 14.4121 8.22 13.1588 8.22C11.9054 8.22 10.8788 8.36667 10.0788 8.66C9.27875 8.95333 8.70542 9.34 8.35875 9.82C8.01208 10.2733 7.83875 10.8067 7.83875 11.42C7.83875 12.14 8.13208 12.7267 8.71875 13.18C9.30542 13.6067 10.0788 13.9533 11.0388 14.22C11.9988 14.4867 13.0521 14.7533 14.1988 15.02C15.3721 15.2867 16.5321 15.5933 17.6788 15.94C18.8521 16.2867 19.9188 16.7533 20.8788 17.34C21.8388 17.9267 22.6121 18.7 23.1988 19.66C23.8121 20.62 24.1188 21.8333 24.1188 23.3C24.1188 24.8733 23.6788 26.3133 22.7988 27.62C21.9188 28.9267 20.5988 29.98 18.8388 30.78C17.1054 31.58 14.9054 31.98 12.2388 31.98ZM33.2666 27.1L33.4266 19.5L43.4666 9.98H50.9066L41.2666 19.78L38.0266 22.42L33.2666 27.1ZM28.1066 31.5V1.82H34.3466V31.5H28.1066ZM44.1466 31.5L36.8666 22.46L40.7866 17.62L51.7066 31.5H44.1466ZM54.5128 31.5V9.98H60.7528V31.5H54.5128ZM57.6328 6.98C56.4861 6.98 55.5528 6.64667 54.8328 5.98C54.1128 5.31333 53.7528 4.48666 53.7528 3.5C53.7528 2.51333 54.1128 1.68667 54.8328 1.02C55.5528 0.353331 56.4861 0.0199976 57.6328 0.0199976C58.7795 0.0199976 59.7128 0.339998 60.4328 0.98C61.1528 1.59333 61.5128 2.39333 61.5128 3.38C61.5128 4.42 61.1528 5.28667 60.4328 5.98C59.7395 6.64667 58.8061 6.98 57.6328 6.98ZM79.2641 31.82C77.4507 31.82 75.8641 31.42 74.5041 30.62C73.1441 29.82 72.0774 28.6067 71.3041 26.98C70.5574 25.3267 70.1841 23.2467 70.1841 20.74C70.1841 18.2067 70.5441 16.1267 71.2641 14.5C71.9841 12.8733 73.0241 11.66 74.3841 10.86C75.7441 10.06 77.3707 9.66 79.2641 9.66C81.2907 9.66 83.1041 10.1267 84.7041 11.06C86.3307 11.9667 87.6107 13.2467 88.5441 14.9C89.5041 16.5533 89.9841 18.5 89.9841 20.74C89.9841 23.0067 89.5041 24.9667 88.5441 26.62C87.6107 28.2733 86.3307 29.5533 84.7041 30.46C83.1041 31.3667 81.2907 31.82 79.2641 31.82ZM66.5441 39.26V9.98H72.5041V14.38L72.3841 20.78L72.7841 27.14V39.26H66.5441ZM78.1841 26.7C79.2241 26.7 80.1441 26.46 80.9441 25.98C81.7707 25.5 82.4241 24.82 82.9041 23.94C83.4107 23.0333 83.6641 21.9667 83.6641 20.74C83.6641 19.4867 83.4107 18.42 82.9041 17.54C82.4241 16.66 81.7707 15.98 80.9441 15.5C80.1441 15.02 79.2241 14.78 78.1841 14.78C77.1441 14.78 76.2107 15.02 75.3841 15.5C74.5574 15.98 73.9041 16.66 73.4241 17.54C72.9441 18.42 72.7041 19.4867 72.7041 20.74C72.7041 21.9667 72.9441 23.0333 73.4241 23.94C73.9041 24.82 74.5574 25.5 75.3841 25.98C76.2107 26.46 77.1441 26.7 78.1841 26.7Z" fill="white"/>
</svg>
