<svg width="80" height="80" viewBox="0 0 80 80" fill="none" xmlns="http://www.w3.org/2000/svg">
<g filter="url(#filter0_d_4408_154928)">
<rect x="14" y="14" width="52" height="52" rx="18.6667" fill="#FC9DED"/>
<g clip-path="url(#clip0_4408_154928)">
<path d="M41.5263 53.2793V54.7978H39.6273C42.4109 57.0461 47.6146 56.2854 50.1559 53.747C51.4463 52.4566 52.1562 50.7436 52.1562 48.918H53.6748C53.6748 51.1465 52.8071 53.2427 51.2293 54.8204C48.0908 57.959 41.8869 58.7281 38.5314 55.8628V57.7984H37.0128V53.2849H41.5263V53.2793Z" fill="black"/>
<path d="M25.444 26.7015C28.3685 23.7771 32.6594 23.4841 35.9162 25.8169V23.918H37.4348V28.4314H32.9214V26.9128H34.84C32.1888 25.152 28.8531 25.4365 26.5175 27.7721C25.2271 29.0625 24.5171 30.7755 24.5171 32.6011H22.9985C22.9985 30.3726 23.8663 28.2765 25.444 26.6987V26.7015Z" fill="black"/>
<path d="M22.9997 35.1569C23.6196 34.3145 24.5183 33.7567 24.5183 33.7567V32.6016H22.9997V35.1569Z" fill="black"/>
<path d="M46.8999 34.6415H49.7989V33.9287C49.7989 33.4216 49.6468 33.0131 49.3425 32.6581C49.0382 32.3031 48.579 32.1509 48.0212 32.1509V28.5926C49.2411 28.5926 50.2582 28.8462 51.1231 29.3561C51.988 29.8632 52.6473 30.5253 53.1065 31.3903C53.563 32.2045 53.7686 33.1201 53.7686 34.0837V34.6443H56V37.9491H53.763V46.9986H49.7961V37.9491H46.8463V46.9986H42.9302V28.5391H46.8463V34.6415H46.897H46.8999Z" fill="black"/>
<path d="M39.5763 29.1484C40.1877 29.1484 40.6948 29.3513 41.1005 29.7598C41.5062 30.1655 41.7119 30.6755 41.7119 31.284C41.7119 31.8926 41.5091 32.4025 41.1005 32.8082C40.692 33.2139 40.1849 33.4196 39.5763 33.4196C38.9678 33.4196 38.4578 33.2167 38.0521 32.8082C37.6464 32.4025 37.4915 31.8926 37.4915 31.284C37.4915 30.6755 37.6943 30.1655 38.0521 29.7598C38.4071 29.3541 38.9171 29.1484 39.5763 29.1484Z" fill="black"/>
<path d="M37.5926 34.6406H41.5088V46.9948H37.5926V34.6406Z" fill="black"/>
<path d="M25.8985 35.2009C26.8141 34.6403 27.8312 34.3867 29.0004 34.3867C29.8146 34.3867 30.5753 34.5389 31.2881 34.8938C31.6431 35.046 31.9502 35.2488 32.2545 35.5052V34.6403L36.1707 35.6574V52.1813H32.3052V46.1296C32.0009 46.3831 31.6938 46.586 31.2881 46.7409C30.5753 47.0452 29.8146 47.2481 29.0004 47.2481C27.8312 47.2481 26.8141 46.9438 25.8985 46.3831C24.9828 45.8225 24.27 45.0618 23.7629 44.0954C23.2558 43.1291 22.9994 42.0613 22.9994 40.7906C22.9994 39.52 23.253 38.4522 23.8136 37.4858C24.27 36.5195 25.0335 35.756 25.8985 35.1981V35.2009ZM27.3213 42.3205C27.5748 42.7769 27.8819 43.084 28.3383 43.3375C28.744 43.5911 29.254 43.6925 29.7611 43.6925C30.2682 43.6925 30.7782 43.5911 31.1839 43.3375C31.5896 43.084 31.9474 42.7262 32.1502 42.3205C32.4038 41.8641 32.5052 41.4048 32.5052 40.7963C32.5052 40.2356 32.4038 39.7285 32.1502 39.2721C31.8967 38.8156 31.5896 38.5086 31.1839 38.255C30.7782 38.0014 30.2682 37.9 29.7611 37.9C29.2005 37.9 28.744 38.0014 28.3383 38.255C27.9326 38.5086 27.6255 38.8664 27.372 39.2721C27.1184 39.7285 27.017 40.2384 27.017 40.7963C26.9663 41.3569 27.0677 41.8641 27.3213 42.3205Z" fill="black"/>
</g>
</g>
<defs>
<filter id="filter0_d_4408_154928" x="-4" y="0" width="88" height="88" filterUnits="userSpaceOnUse" color-interpolation-filters="sRGB">
<feFlood flood-opacity="0" result="BackgroundImageFix"/>
<feColorMatrix in="SourceAlpha" type="matrix" values="0 0 0 0 0 0 0 0 0 0 0 0 0 0 0 0 0 0 127 0" result="hardAlpha"/>
<feOffset dy="4"/>
<feGaussianBlur stdDeviation="2"/>
<feComposite in2="hardAlpha" operator="out"/>
<feColorMatrix type="matrix" values="0 0 0 0 0 0 0 0 0 0 0 0 0 0 0 0 0 0 0.25 0"/>
<feBlend mode="normal" in2="BackgroundImageFix" result="effect1_dropShadow_4408_154928"/>
<feBlend mode="normal" in="SourceGraphic" in2="effect1_dropShadow_4408_154928" result="shape"/>
</filter>
<clipPath id="clip0_4408_154928">
<rect width="33" height="33.879" fill="white" transform="matrix(-1 0 0 1 56 23.918)"/>
</clipPath>
</defs>
</svg>
