<svg width="35" height="36" viewBox="0 0 35 36" fill="none" xmlns="http://www.w3.org/2000/svg">
<g clip-path="url(#clip0_2358_66835)">
<path d="M15.293 31.0267V32.6313H17.2995C14.3582 35.007 8.85966 34.2032 6.17437 31.5208C4.81089 30.1574 4.06068 28.3473 4.06068 26.4182H2.45605C2.45605 28.773 3.37298 30.988 5.04012 32.6551C8.35654 35.9715 14.912 36.7842 18.4576 33.7566V35.8018H20.0622V31.0326H15.293V31.0267Z" fill="black"/>
<path d="M32.2859 2.94131C29.1957 -0.148852 24.6617 -0.458463 21.2202 2.00652V0H19.6156V4.76921H24.3848V3.16459H22.3574C25.1588 1.30394 28.6836 1.60462 31.1516 4.07258C32.5151 5.43606 33.2653 7.2461 33.2653 9.17522H34.8699C34.8699 6.82038 33.953 4.60547 32.2859 2.93833V2.94131Z" fill="black"/>
<path d="M34.87 11.8783C34.2151 10.9882 33.2654 10.3987 33.2654 10.3987V9.17816H34.87V11.8783Z" fill="black"/>
<path d="M9.61582 11.3335H6.55245V10.5803C6.55245 10.0445 6.71321 9.61278 7.03473 9.23768C7.35625 8.86257 7.84151 8.70181 8.43096 8.70181V4.94182C7.1419 4.94182 6.06719 5.20975 5.15325 5.74859C4.2393 6.28446 3.54267 6.98406 3.05741 7.89801C2.57513 8.75838 2.35781 9.72591 2.35781 10.7441V11.3365H0V14.8285H2.36377V24.3908H6.55543V14.8285H9.67238V24.3908H13.8105V4.88525H9.67238V11.3335H9.6188H9.61582Z" fill="black"/>
<path d="M17.353 5.53119C16.707 5.53119 16.1711 5.74554 15.7425 6.17721C15.3138 6.6059 15.0964 7.14474 15.0964 7.78778C15.0964 8.43082 15.3108 8.96966 15.7425 9.39836C16.1741 9.82705 16.71 10.0444 17.353 10.0444C17.9961 10.0444 18.5349 9.83003 18.9636 9.39836C19.3923 8.96966 19.556 8.43082 19.556 7.78778C19.556 7.14474 19.3417 6.6059 18.9636 6.17721C18.5885 5.74851 18.0497 5.53119 17.353 5.53119Z" fill="black"/>
<path d="M19.449 11.3335H15.3109V24.3878H19.449V11.3335Z" fill="black"/>
<path d="M31.8067 11.9259C30.8391 11.3335 29.7644 11.0656 28.5289 11.0656C27.6686 11.0656 26.8648 11.2263 26.1116 11.6014C25.7365 11.7622 25.412 11.9765 25.0905 12.2474V11.3335L20.9524 12.4082V29.8685H25.0369V23.4738C25.3584 23.7418 25.6829 23.9561 26.1116 24.1198C26.8648 24.4414 27.6686 24.6557 28.5289 24.6557C29.7644 24.6557 30.8391 24.3342 31.8067 23.7418C32.7742 23.1493 33.5274 22.3455 34.0632 21.3244C34.5991 20.3033 34.87 19.175 34.87 17.8324C34.87 16.4897 34.6021 15.3614 34.0097 14.3403C33.5274 13.3192 32.7206 12.5124 31.8067 11.9229V11.9259ZM30.3033 19.4489C30.0353 19.9312 29.7108 20.2557 29.2285 20.5236C28.7999 20.7915 28.261 20.8987 27.7251 20.8987C27.1893 20.8987 26.6504 20.7915 26.2217 20.5236C25.7931 20.2557 25.415 19.8776 25.2006 19.4489C24.9327 18.9666 24.8255 18.4813 24.8255 17.8383C24.8255 17.2459 24.9327 16.71 25.2006 16.2277C25.4686 15.7454 25.7931 15.421 26.2217 15.153C26.6504 14.8851 27.1893 14.7779 27.7251 14.7779C28.3176 14.7779 28.7999 14.8851 29.2285 15.153C29.6572 15.421 29.9817 15.799 30.2497 16.2277C30.5176 16.71 30.6248 17.2489 30.6248 17.8383C30.6784 18.4307 30.5712 18.9666 30.3033 19.4489Z" fill="black"/>
</g>
<defs>
<clipPath id="clip0_2358_66835">
<rect width="34.87" height="35.7988" fill="white"/>
</clipPath>
</defs>
</svg>
