<svg width="28" height="28" viewBox="0 0 28 28" fill="none" xmlns="http://www.w3.org/2000/svg">
<path d="M4.90909 7.38852C4.90909 6.73096 5.17031 6.10033 5.63527 5.63536C6.10024 5.1704 6.73087 4.90918 7.38843 4.90918H9.86777C10.5253 4.90918 11.156 5.1704 11.6209 5.63536C12.0859 6.10033 12.3471 6.73096 12.3471 7.38852V9.86786C12.3471 10.5254 12.0859 11.156 11.6209 11.621C11.156 12.086 10.5253 12.3472 9.86777 12.3472H7.38843C6.73087 12.3472 6.10024 12.086 5.63527 11.621C5.17031 11.156 4.90909 10.5254 4.90909 9.86786V7.38852ZM4.90909 18.1323C4.90909 17.4748 5.17031 16.8441 5.63527 16.3792C6.10024 15.9142 6.73087 15.653 7.38843 15.653H9.86777C10.5253 15.653 11.156 15.9142 11.6209 16.3792C12.0859 16.8441 12.3471 17.4748 12.3471 18.1323V20.6117C12.3471 21.2692 12.0859 21.8998 11.6209 22.3648C11.156 22.8298 10.5253 23.091 9.86777 23.091H7.38843C6.73087 23.091 6.10024 22.8298 5.63527 22.3648C5.17031 21.8998 4.90909 21.2692 4.90909 20.6117V18.1323ZM15.6529 7.38852C15.6529 6.73096 15.9141 6.10033 16.3791 5.63536C16.844 5.1704 17.4747 4.90918 18.1322 4.90918H20.6116C21.2691 4.90918 21.8998 5.1704 22.3647 5.63536C22.8297 6.10033 23.0909 6.73096 23.0909 7.38852V9.86786C23.0909 10.5254 22.8297 11.156 22.3647 11.621C21.8998 12.086 21.2691 12.3472 20.6116 12.3472H18.1322C17.4747 12.3472 16.844 12.086 16.3791 11.621C15.9141 11.156 15.6529 10.5254 15.6529 9.86786V7.38852ZM15.6529 18.1323C15.6529 17.4748 15.9141 16.8441 16.3791 16.3792C16.844 15.9142 17.4747 15.653 18.1322 15.653H20.6116C21.2691 15.653 21.8998 15.9142 22.3647 16.3792C22.8297 16.8441 23.0909 17.4748 23.0909 18.1323V20.6117C23.0909 21.2692 22.8297 21.8998 22.3647 22.3648C21.8998 22.8298 21.2691 23.091 20.6116 23.091H18.1322C17.4747 23.091 16.844 22.8298 16.3791 22.3648C15.9141 21.8998 15.6529 21.2692 15.6529 20.6117V18.1323Z" stroke="#123" stroke-width="1.5" stroke-linecap="round" stroke-linejoin="round"/>
</svg>
