<svg width="28" height="28" viewBox="-4 -4 28 28" fill="none" xmlns="http://www.w3.org/2000/svg">
<path d="M10 10C11.3261 10 12.5979 9.47322 13.5355 8.53553C14.4732 7.59785 15 6.32608 15 5C15 3.67392 14.4732 2.40215 13.5355 1.46447C12.5979 0.526784 11.3261 0 10 0C8.67392 0 7.40215 0.526784 6.46447 1.46447C5.52678 2.40215 5 3.67392 5 5C5 6.32608 5.52678 7.59785 6.46447 8.53553C7.40215 9.47322 8.67392 10 10 10ZM13.3333 5C13.3333 5.88406 12.9821 6.7319 12.357 7.35702C11.7319 7.98214 10.8841 8.33333 10 8.33333C9.11594 8.33333 8.2681 7.98214 7.64298 7.35702C7.01786 6.7319 6.66667 5.88406 6.66667 5C6.66667 4.11594 7.01786 3.2681 7.64298 2.64298C8.2681 2.01786 9.11594 1.66667 10 1.66667C10.8841 1.66667 11.7319 2.01786 12.357 2.64298C12.9821 3.2681 13.3333 4.11594 13.3333 5ZM20 18.3333C20 20 18.3333 20 18.3333 20H1.66667C1.66667 20 0 20 0 18.3333C0 16.6667 1.66667 11.6667 10 11.6667C18.3333 11.6667 20 16.6667 20 18.3333ZM18.3333 18.3267C18.3317 17.9167 18.0767 16.6833 16.9467 15.5533C15.86 14.4667 13.815 13.3333 10 13.3333C6.18333 13.3333 4.14 14.4667 3.05333 15.5533C1.92333 16.6833 1.67 17.9167 1.66667 18.3267H18.3333Z" fill="#49E2F7"/>
<path d="M2.78865 17.8712C3.75245 17.696 4.51517 16.7986 5.54978 16.7086C6.02608 16.6672 6.56588 16.6788 7.0353 16.7409C9.36546 17.0493 11.7322 17.7259 14.0915 17.7259C15.1552 17.7259 16.2256 17.7653 17.2886 17.7259C17.929 17.7022 16.618 16.8563 16.5943 16.8378C14.5276 15.2232 12.0025 14.9798 9.47349 14.7064C7.89765 14.5361 5.89873 14.3976 4.79895 15.6349C4.35121 16.1386 3.67976 16.5134 3.52334 17.2173C3.40953 17.7294 3.96101 17.5806 4.30647 17.5806C6.02565 17.5806 7.78207 17.6869 9.49771 17.5725C10.6629 17.4948 11.5863 16.9963 12.6706 16.7006C12.9215 16.6321 14.0311 16.1974 14.1157 15.9013C14.3147 15.2051 12.5117 14.6133 12.0893 14.5288" stroke="#49E2F7" stroke-width="3" stroke-linecap="round"/>
<path d="M12.2346 3.92015C11.5004 3.78666 11.1142 2.90289 10.3454 2.90289C9.86958 2.90289 9.43917 2.84728 9.02946 3.12895C8.059 3.79614 7.73194 5.02828 8.60157 5.80127C9.59936 6.6882 10.2716 7.19106 11.2981 6.16458C11.5523 5.91042 12.0567 5.58635 11.9359 5.16347C11.84 4.82778 10.5634 5.18024 10.3777 5.30879C9.67475 5.79547 11.1498 7.22196 10.0386 7.48863C9.57623 7.59961 8.51935 7.74551 8.10101 7.32716C7.8294 7.05555 7.97617 6.56241 7.84266 6.24532C7.57218 5.60292 8.15298 5.85498 8.60157 5.95467C9.58144 6.17242 9.36063 7.26257 10.3454 7.26257C11.1 7.26257 11.498 6.7014 11.7987 6.09999" stroke="#49E2F7" stroke-width="3" stroke-linecap="round"/>
</svg>
