<svg width="28" height="28" viewBox="0 0 28 28" fill="none" xmlns="http://www.w3.org/2000/svg">
<path d="M14 14C15.3261 14 16.5979 13.4732 17.5355 12.5355C18.4732 11.5979 19 10.3261 19 9C19 7.67392 18.4732 6.40215 17.5355 5.46447C16.5979 4.52678 15.3261 4 14 4C12.6739 4 11.4021 4.52678 10.4645 5.46447C9.52678 6.40215 9 7.67392 9 9C9 10.3261 9.52678 11.5979 10.4645 12.5355C11.4021 13.4732 12.6739 14 14 14ZM17.3333 9C17.3333 9.88405 16.9821 10.7319 16.357 11.357C15.7319 11.9821 14.8841 12.3333 14 12.3333C13.1159 12.3333 12.2681 11.9821 11.643 11.357C11.0179 10.7319 10.6667 9.88405 10.6667 9C10.6667 8.11594 11.0179 7.2681 11.643 6.64298C12.2681 6.01786 13.1159 5.66667 14 5.66667C14.8841 5.66667 15.7319 6.01786 16.357 6.64298C16.9821 7.2681 17.3333 8.11594 17.3333 9ZM24 22.3333C24 24 22.3333 24 22.3333 24H5.66667C5.66667 24 4 24 4 22.3333C4 20.6667 5.66667 15.6667 14 15.6667C22.3333 15.6667 24 20.6667 24 22.3333ZM22.3333 22.3267C22.3317 21.9167 22.0767 20.6833 20.9467 19.5533C19.86 18.4667 17.815 17.3333 14 17.3333C10.1833 17.3333 8.14 18.4667 7.05333 19.5533C5.92333 20.6833 5.67 21.9167 5.66667 22.3267H22.3333Z" stroke="#123" stroke-width="0.5"/>
</svg>
