<svg width="20" height="20" viewBox="-4 -4 28 28" fill="none" xmlns="http://www.w3.org/2000/svg">
<path d="M18.8417 20.0667L11.4917 12.7458C10.9083 13.2319 10.2375 13.6111 9.47917 13.8833C8.72083 14.1556 7.94305 14.2917 7.14583 14.2917C5.14305 14.2917 3.45139 13.6014 2.07083 12.2208C0.690278 10.8403 0 9.14861 0 7.14583C0 5.1625 0.690278 3.4755 2.07083 2.08483C3.45139 0.694945 5.14305 0 7.14583 0C9.12917 0 10.8111 0.690278 12.1917 2.07083C13.5722 3.45139 14.2625 5.14306 14.2625 7.14583C14.2625 7.98194 14.1264 8.77917 13.8542 9.5375C13.5819 10.2958 13.2125 10.9569 12.7458 11.5208L20.0667 18.8417L18.8417 20.0667ZM7.14583 12.5417C8.64305 12.5417 9.912 12.0167 10.9527 10.9667C11.9926 9.91667 12.5125 8.64306 12.5125 7.14583C12.5125 5.64861 11.9926 4.375 10.9527 3.325C9.912 2.275 8.64305 1.75 7.14583 1.75C5.62917 1.75 4.35089 2.275 3.311 3.325C2.27033 4.375 1.75 5.64861 1.75 7.14583C1.75 8.64306 2.27033 9.91667 3.311 10.9667C4.35089 12.0167 5.62917 12.5417 7.14583 12.5417Z" stroke="white"/>
</svg>
