<svg width="77" height="24" viewBox="0 0 77 24" fill="none" xmlns="http://www.w3.org/2000/svg">
<g clip-path="url(#clip0_4403_152018)">
<path d="M9.01118 6.098H6.10026V5.39673C6.10026 4.88857 6.26226 4.45662 6.5812 4.10091C6.90013 3.74519 7.34057 3.56733 7.89744 3.56733L7.92275 0.0355717C6.72295 0.0355717 5.69527 0.289655 4.83465 0.797822C3.97403 1.30599 3.32604 1.97677 2.8856 2.80508C2.44517 3.63339 2.22748 4.54301 2.22748 5.52378V6.098H0V9.4265H2.22748V18.4465H6.10026V9.4265H9.01118V18.4465H12.9093V0H9.01118V6.098Z" fill="url(#paint0_linear_4403_152018)"/>
<path d="M16.3012 0.635506C15.7089 0.635506 15.2127 0.838773 14.8077 1.24531C14.4027 1.65184 14.2002 2.16001 14.2002 2.76981C14.2002 3.37961 14.4027 3.87253 14.8077 4.29431C15.2127 4.71609 15.7089 4.92952 16.3012 4.92952C16.9238 4.92952 17.425 4.71609 17.8047 4.29431C18.1844 3.87253 18.3717 3.36436 18.3717 2.76981C18.3717 2.17525 18.1793 1.65184 17.8047 1.24531C17.425 0.838773 16.9238 0.635506 16.3012 0.635506Z" fill="url(#paint1_linear_4403_152018)"/>
<path d="M18.2501 6.09766H14.3521V18.4461H18.2501V6.09766Z" fill="url(#paint2_linear_4403_152018)"/>
<path d="M29.8787 6.68249C28.9776 6.12351 27.9499 5.84402 26.8007 5.84402C25.9755 5.84402 25.2161 6.01171 24.5226 6.35219C24.1682 6.52496 23.8493 6.73331 23.5607 6.96707V6.0981L19.6626 7.11444V23.6553H23.5101V17.5979C23.8037 17.8368 24.1328 18.0451 24.4973 18.2179C25.1908 18.538 25.9553 18.7006 26.8007 18.7006C27.9499 18.7006 28.9776 18.4161 29.8888 17.852C30.8 17.2829 31.5138 16.5206 32.0252 15.5653C32.5415 14.6099 32.7997 13.5123 32.7997 12.2723C32.7997 11.0324 32.5365 9.93476 32.015 8.96925C31.4936 8.00373 30.7798 7.24148 29.8787 6.68249ZM28.4865 13.7714C28.2435 14.2135 27.9144 14.554 27.4993 14.803C27.0842 15.0469 26.6083 15.1689 26.0666 15.1689C25.525 15.1689 25.0744 15.0469 24.6643 14.803C24.2492 14.5591 23.9252 14.2135 23.6923 13.7714C23.4544 13.3293 23.338 12.8313 23.338 12.2723C23.338 11.7133 23.4544 11.2153 23.6923 10.7732C23.9303 10.3311 24.2543 9.99066 24.6643 9.74674C25.0795 9.50282 25.5553 9.37578 26.097 9.37578C26.6387 9.37578 27.1095 9.49774 27.5145 9.74674C27.9195 9.99574 28.2435 10.3362 28.4865 10.7732C28.7295 11.2153 28.851 11.7133 28.851 12.2723C28.851 12.8313 28.7295 13.3293 28.4865 13.7714Z" fill="url(#paint3_linear_4403_152018)"/>
<path d="M37.8419 9.09609C38.0596 8.95888 38.3886 8.89282 38.8291 8.89282C39.2695 8.89282 39.7555 8.98937 40.2314 9.18248C40.7123 9.37558 41.1477 9.70589 41.5375 10.1632L43.7396 7.9019C43.198 7.19046 42.4841 6.65181 41.5881 6.29101C40.692 5.92513 39.7302 5.74219 38.7025 5.74219C37.6748 5.74219 36.7889 5.90988 36.0447 6.25035C35.3005 6.59083 34.7285 7.05326 34.3235 7.63257C33.9185 8.21696 33.716 8.90807 33.716 9.70589C33.716 10.5037 33.8577 11.0881 34.1463 11.5607C34.4348 12.0333 34.8044 12.4093 35.26 12.6787C35.7156 12.948 36.1966 13.1665 36.7028 13.3291C37.2091 13.4917 37.6951 13.634 38.1608 13.7611C38.6266 13.8881 39.0012 14.0253 39.2847 14.1676C39.5682 14.3099 39.715 14.5335 39.715 14.8384C39.715 15.0925 39.5935 15.2856 39.3454 15.4228C39.1024 15.56 38.7683 15.626 38.3481 15.626C37.6748 15.626 37.0623 15.5041 36.5155 15.2551C35.9688 15.0112 34.9613 14.3505 33.9185 13.5629C33.559 15.3821 32.8098 16.6271 32.8098 16.6271C33.4274 17.12 33.7868 17.3233 34.3792 17.6689C34.9715 18.0144 35.6195 18.2888 36.3282 18.4819C37.0369 18.675 37.7558 18.7716 38.4797 18.7716C40.0137 18.7716 41.2337 18.4108 42.1348 17.6943C43.036 16.9727 43.4916 16.0122 43.4916 14.813C43.4916 14.0355 43.3498 13.4053 43.0613 12.9226C42.7727 12.4398 42.4031 12.0485 41.9475 11.7538C41.4919 11.4591 41.011 11.2304 40.5047 11.0678C39.9985 10.9052 39.5226 10.768 39.0721 10.646C38.6266 10.5291 38.2519 10.3919 37.9583 10.2395C37.6647 10.087 37.5128 9.88375 37.5128 9.62967C37.5128 9.41115 37.6242 9.23329 37.8419 9.09609Z" fill="url(#paint4_linear_4403_152018)"/>
<path d="M48.7262 6.09766H44.8281V18.4461H48.7262V6.09766Z" fill="url(#paint5_linear_4403_152018)"/>
<path d="M46.7771 0.635506C46.1848 0.635506 45.6886 0.838773 45.2836 1.24531C44.8786 1.65184 44.6762 2.16001 44.6762 2.76981C44.6762 3.37961 44.8786 3.87253 45.2836 4.29431C45.6886 4.71609 46.1848 4.92952 46.7771 4.92952C47.3998 4.92952 47.9009 4.71609 48.2806 4.29431C48.6603 3.87253 48.8476 3.36436 48.8476 2.76981C48.8476 2.17525 48.6552 1.65184 48.2806 1.24531C47.9009 0.838773 47.3998 0.635506 46.7771 0.635506Z" fill="url(#paint6_linear_4403_152018)"/>
<path d="M59.1043 6.86025C58.8309 6.65191 58.5271 6.46897 58.193 6.31652C57.4995 6.00145 56.7401 5.849 55.9149 5.849C54.7505 5.849 53.7127 6.12849 52.8015 6.68748C51.8903 7.24646 51.1815 8.00871 50.6753 8.97423C50.169 9.93975 49.9159 11.0425 49.9159 12.2773C49.9159 13.5122 50.169 14.6149 50.6753 15.5804C51.1815 16.5459 51.8852 17.3082 52.7863 17.8672C53.6874 18.4261 54.7303 18.7056 55.9099 18.7056C56.735 18.7056 57.4944 18.5328 58.188 18.1822C58.5525 17.9993 58.8815 17.7808 59.1751 17.5318V18.4515H62.9973V0H59.0992V6.86025H59.1043ZM58.0411 14.8029C57.6361 15.0468 57.1552 15.1688 56.5983 15.1688C56.0769 15.1688 55.601 15.0468 55.1809 14.8029C54.7607 14.559 54.4316 14.2134 54.2038 13.7713C53.976 13.3292 53.8646 12.8312 53.8646 12.2722C53.8646 11.7132 53.9861 11.2152 54.2342 10.7884C54.4772 10.3564 54.8012 10.0109 55.2062 9.75681C55.6112 9.50272 56.082 9.37568 56.6237 9.37568C57.1653 9.37568 57.6361 9.49764 58.0411 9.74664C58.4461 9.99564 58.76 10.331 58.9929 10.763C59.2207 11.1949 59.3321 11.6929 59.3321 12.2468C59.3321 12.8007 59.2207 13.3292 58.9929 13.7713C58.7651 14.2134 58.4461 14.5539 58.0411 14.8029Z" fill="url(#paint7_linear_4403_152018)"/>
<path d="M76.19 8.79134C75.6484 7.86139 74.9143 7.12963 73.9879 6.60622C73.0614 6.08281 71.9781 5.81856 70.7479 5.81856C69.5177 5.81856 68.3787 6.09805 67.3814 6.65704C66.3841 7.21602 65.5994 7.98335 65.0273 8.95903C64.4553 9.93471 64.1667 11.0273 64.1667 12.2469C64.1667 13.4665 64.4603 14.62 65.0526 15.6008C65.6449 16.5815 66.4549 17.3489 67.4826 17.9028C68.5103 18.4567 69.6949 18.726 71.0263 18.726C72.0743 18.726 73.026 18.5532 73.8866 18.2026C74.7472 17.857 75.4813 17.3184 76.0888 16.5917L73.9372 14.4574C73.5677 14.8792 73.1374 15.1993 72.6463 15.4128C72.1553 15.6262 71.6186 15.7278 71.0263 15.7278C70.3682 15.7278 69.8012 15.5906 69.3152 15.3111C68.8343 15.0316 68.4647 14.6302 68.2015 14.1017C68.1205 13.9391 68.0547 13.7663 67.999 13.5834L76.7925 13.5427C76.8785 13.2378 76.9342 12.9634 76.9595 12.7195C76.9849 12.4755 77 12.2316 77 11.9979C77 10.7935 76.7317 9.72637 76.19 8.79642V8.79134ZM69.219 9.22328C69.6645 8.93362 70.191 8.79134 70.7985 8.79134C71.3554 8.79134 71.8313 8.91838 72.2261 9.17246C72.621 9.42655 72.9248 9.78735 73.1273 10.2498C73.2083 10.4327 73.269 10.6411 73.3196 10.8596L67.999 10.8901C68.0496 10.7224 68.1053 10.5648 68.1762 10.4175C68.4192 9.90931 68.7685 9.51294 69.214 9.22328H69.219Z" fill="url(#paint8_linear_4403_152018)"/>
</g>
<defs>
<linearGradient id="paint0_linear_4403_152018" x1="7" y1="3.54365e-06" x2="82" y2="24" gradientUnits="userSpaceOnUse">
<stop stop-color="#49E2F7"/>
<stop offset="1" stop-color="#BEF43E"/>
</linearGradient>
<linearGradient id="paint1_linear_4403_152018" x1="7" y1="3.54365e-06" x2="82" y2="24" gradientUnits="userSpaceOnUse">
<stop stop-color="#49E2F7"/>
<stop offset="1" stop-color="#BEF43E"/>
</linearGradient>
<linearGradient id="paint2_linear_4403_152018" x1="7" y1="3.54365e-06" x2="82" y2="24" gradientUnits="userSpaceOnUse">
<stop stop-color="#49E2F7"/>
<stop offset="1" stop-color="#BEF43E"/>
</linearGradient>
<linearGradient id="paint3_linear_4403_152018" x1="7" y1="3.54365e-06" x2="82" y2="24" gradientUnits="userSpaceOnUse">
<stop stop-color="#49E2F7"/>
<stop offset="1" stop-color="#BEF43E"/>
</linearGradient>
<linearGradient id="paint4_linear_4403_152018" x1="7" y1="3.54365e-06" x2="82" y2="24" gradientUnits="userSpaceOnUse">
<stop stop-color="#49E2F7"/>
<stop offset="1" stop-color="#BEF43E"/>
</linearGradient>
<linearGradient id="paint5_linear_4403_152018" x1="7" y1="3.54365e-06" x2="82" y2="24" gradientUnits="userSpaceOnUse">
<stop stop-color="#49E2F7"/>
<stop offset="1" stop-color="#BEF43E"/>
</linearGradient>
<linearGradient id="paint6_linear_4403_152018" x1="7" y1="3.54365e-06" x2="82" y2="24" gradientUnits="userSpaceOnUse">
<stop stop-color="#49E2F7"/>
<stop offset="1" stop-color="#BEF43E"/>
</linearGradient>
<linearGradient id="paint7_linear_4403_152018" x1="7" y1="3.54365e-06" x2="82" y2="24" gradientUnits="userSpaceOnUse">
<stop stop-color="#49E2F7"/>
<stop offset="1" stop-color="#BEF43E"/>
</linearGradient>
<linearGradient id="paint8_linear_4403_152018" x1="7" y1="3.54365e-06" x2="82" y2="24" gradientUnits="userSpaceOnUse">
<stop stop-color="#49E2F7"/>
<stop offset="1" stop-color="#BEF43E"/>
</linearGradient>
<clipPath id="clip0_4403_152018">
<rect width="77" height="23.6552" fill="white"/>
</clipPath>
</defs>
</svg>
