<svg width="201" height="186" viewBox="0 0 201 186" fill="none" xmlns="http://www.w3.org/2000/svg">
<rect x="74.5322" y="-6.78937" width="39.5633" height="101.505" rx="19.7816" transform="rotate(33 74.5322 -6.78937)" fill="#96E418"/>
<path d="M101.386 34.088C107.337 24.9255 119.588 22.3214 128.75 28.2716V28.2716C137.913 34.2218 140.517 46.4732 134.567 55.6357L116.379 83.6423C110.429 92.8048 98.1776 95.4089 89.0151 89.4587V89.4587C79.8525 83.5085 77.2484 71.2571 83.1986 62.0946L101.386 34.088Z" fill="#49E2F7"/>
<rect x="133.391" y="49.7758" width="42.6066" height="42.6066" rx="21.3033" fill="#FC9DED"/>
<path d="M44.5473 122.484L38.8913 142H36.0353L31.4993 126.292L26.7953 142L23.9673 142.028L18.5073 122.484H21.2233L25.4793 139.032L30.1833 122.484H33.0393L37.5193 138.976L41.8033 122.484H44.5473ZM61.0357 133.74C61.0357 134.225 61.0077 134.739 60.9517 135.28H48.6877C48.781 136.792 49.2944 137.977 50.2277 138.836C51.1797 139.676 52.3277 140.096 53.6717 140.096C54.773 140.096 55.6877 139.844 56.4157 139.34C57.1624 138.817 57.685 138.127 57.9837 137.268H60.7277C60.317 138.743 59.4957 139.947 58.2637 140.88C57.0317 141.795 55.501 142.252 53.6717 142.252C52.2157 142.252 50.909 141.925 49.7517 141.272C48.613 140.619 47.717 139.695 47.0637 138.5C46.4104 137.287 46.0837 135.887 46.0837 134.3C46.0837 132.713 46.401 131.323 47.0357 130.128C47.6704 128.933 48.557 128.019 49.6957 127.384C50.853 126.731 52.1784 126.404 53.6717 126.404C55.1277 126.404 56.4157 126.721 57.5357 127.356C58.6557 127.991 59.5144 128.868 60.1117 129.988C60.7277 131.089 61.0357 132.34 61.0357 133.74ZM58.4037 133.208C58.4037 132.237 58.189 131.407 57.7597 130.716C57.3304 130.007 56.7424 129.475 55.9957 129.12C55.2677 128.747 54.4557 128.56 53.5597 128.56C52.2717 128.56 51.1704 128.971 50.2557 129.792C49.3597 130.613 48.8464 131.752 48.7157 133.208H58.4037ZM66.647 121.28V142H64.099V121.28H66.647ZM69.7376 134.3C69.7376 132.713 70.0549 131.332 70.6896 130.156C71.3243 128.961 72.2016 128.037 73.3216 127.384C74.4603 126.731 75.7576 126.404 77.2136 126.404C79.0989 126.404 80.6483 126.861 81.8616 127.776C83.0936 128.691 83.9056 129.96 84.2976 131.584H81.5536C81.2923 130.651 80.7789 129.913 80.0136 129.372C79.2669 128.831 78.3336 128.56 77.2136 128.56C75.7576 128.56 74.5816 129.064 73.6856 130.072C72.7896 131.061 72.3416 132.471 72.3416 134.3C72.3416 136.148 72.7896 137.576 73.6856 138.584C74.5816 139.592 75.7576 140.096 77.2136 140.096C78.3336 140.096 79.2669 139.835 80.0136 139.312C80.7603 138.789 81.2736 138.043 81.5536 137.072H84.2976C83.8869 138.64 83.0656 139.9 81.8336 140.852C80.6016 141.785 79.0616 142.252 77.2136 142.252C75.7576 142.252 74.4603 141.925 73.3216 141.272C72.2016 140.619 71.3243 139.695 70.6896 138.5C70.0549 137.305 69.7376 135.905 69.7376 134.3ZM94.0894 142.252C92.6521 142.252 91.3454 141.925 90.1694 141.272C89.0121 140.619 88.0974 139.695 87.4254 138.5C86.7721 137.287 86.4454 135.887 86.4454 134.3C86.4454 132.732 86.7814 131.351 87.4534 130.156C88.1441 128.943 89.0774 128.019 90.2534 127.384C91.4294 126.731 92.7454 126.404 94.2014 126.404C95.6574 126.404 96.9734 126.731 98.1494 127.384C99.3254 128.019 100.249 128.933 100.921 130.128C101.612 131.323 101.957 132.713 101.957 134.3C101.957 135.887 101.603 137.287 100.893 138.5C100.203 139.695 99.2601 140.619 98.0654 141.272C96.8707 141.925 95.5454 142.252 94.0894 142.252ZM94.0894 140.012C95.0041 140.012 95.8627 139.797 96.6654 139.368C97.4681 138.939 98.1121 138.295 98.5974 137.436C99.1014 136.577 99.3534 135.532 99.3534 134.3C99.3534 133.068 99.1107 132.023 98.6254 131.164C98.1401 130.305 97.5054 129.671 96.7214 129.26C95.9374 128.831 95.0881 128.616 94.1734 128.616C93.2401 128.616 92.3814 128.831 91.5974 129.26C90.8321 129.671 90.2161 130.305 89.7494 131.164C89.2827 132.023 89.0494 133.068 89.0494 134.3C89.0494 135.551 89.2734 136.605 89.7214 137.464C90.1881 138.323 90.8041 138.967 91.5694 139.396C92.3347 139.807 93.1747 140.012 94.0894 140.012ZM123.46 126.376C124.654 126.376 125.718 126.628 126.652 127.132C127.585 127.617 128.322 128.355 128.864 129.344C129.405 130.333 129.676 131.537 129.676 132.956V142H127.156V133.32C127.156 131.789 126.773 130.623 126.008 129.82C125.261 128.999 124.244 128.588 122.956 128.588C121.63 128.588 120.576 129.017 119.792 129.876C119.008 130.716 118.616 131.939 118.616 133.544V142H116.096V133.32C116.096 131.789 115.713 130.623 114.948 129.82C114.201 128.999 113.184 128.588 111.896 128.588C110.57 128.588 109.516 129.017 108.732 129.876C107.948 130.716 107.556 131.939 107.556 133.544V142H105.008V126.656H107.556V128.868C108.06 128.065 108.732 127.449 109.572 127.02C110.43 126.591 111.373 126.376 112.4 126.376C113.688 126.376 114.826 126.665 115.816 127.244C116.805 127.823 117.542 128.672 118.028 129.792C118.457 128.709 119.166 127.869 120.156 127.272C121.145 126.675 122.246 126.376 123.46 126.376ZM147.555 133.74C147.555 134.225 147.527 134.739 147.471 135.28H135.207C135.301 136.792 135.814 137.977 136.747 138.836C137.699 139.676 138.847 140.096 140.191 140.096C141.293 140.096 142.207 139.844 142.935 139.34C143.682 138.817 144.205 138.127 144.503 137.268H147.247C146.837 138.743 146.015 139.947 144.783 140.88C143.551 141.795 142.021 142.252 140.191 142.252C138.735 142.252 137.429 141.925 136.271 141.272C135.133 140.619 134.237 139.695 133.583 138.5C132.93 137.287 132.603 135.887 132.603 134.3C132.603 132.713 132.921 131.323 133.555 130.128C134.19 128.933 135.077 128.019 136.215 127.384C137.373 126.731 138.698 126.404 140.191 126.404C141.647 126.404 142.935 126.721 144.055 127.356C145.175 127.991 146.034 128.868 146.631 129.988C147.247 131.089 147.555 132.34 147.555 133.74ZM144.923 133.208C144.923 132.237 144.709 131.407 144.279 130.716C143.85 130.007 143.262 129.475 142.515 129.12C141.787 128.747 140.975 128.56 140.079 128.56C138.791 128.56 137.69 128.971 136.775 129.792C135.879 130.613 135.366 131.752 135.235 133.208H144.923ZM160.891 128.756V137.8C160.891 138.547 161.05 139.079 161.367 139.396C161.685 139.695 162.235 139.844 163.019 139.844H164.895V142H162.599C161.181 142 160.117 141.673 159.407 141.02C158.698 140.367 158.343 139.293 158.343 137.8V128.756H156.355V126.656H158.343V122.792H160.891V126.656H164.895V128.756H160.891ZM174.375 142.252C172.937 142.252 171.631 141.925 170.455 141.272C169.297 140.619 168.383 139.695 167.711 138.5C167.057 137.287 166.731 135.887 166.731 134.3C166.731 132.732 167.067 131.351 167.739 130.156C168.429 128.943 169.363 128.019 170.539 127.384C171.715 126.731 173.031 126.404 174.487 126.404C175.943 126.404 177.259 126.731 178.435 127.384C179.611 128.019 180.535 128.933 181.207 130.128C181.897 131.323 182.243 132.713 182.243 134.3C182.243 135.887 181.888 137.287 181.179 138.5C180.488 139.695 179.545 140.619 178.351 141.272C177.156 141.925 175.831 142.252 174.375 142.252ZM174.375 140.012C175.289 140.012 176.148 139.797 176.951 139.368C177.753 138.939 178.397 138.295 178.883 137.436C179.387 136.577 179.639 135.532 179.639 134.3C179.639 133.068 179.396 132.023 178.911 131.164C178.425 130.305 177.791 129.671 177.007 129.26C176.223 128.831 175.373 128.616 174.459 128.616C173.525 128.616 172.667 128.831 171.883 129.26C171.117 129.671 170.501 130.305 170.035 131.164C169.568 132.023 169.335 133.068 169.335 134.3C169.335 135.551 169.559 136.605 170.007 137.464C170.473 138.323 171.089 138.967 171.855 139.396C172.62 139.807 173.46 140.012 174.375 140.012ZM52.8213 158.456V178H48.9013V165.288L43.6653 178H40.6973L35.4333 165.288V178H31.5133V158.456H35.9653L42.1813 172.988L48.3973 158.456H52.8213ZM70.8168 169.908C70.8168 170.468 70.7795 170.972 70.7048 171.42H59.3648C59.4582 172.54 59.8502 173.417 60.5408 174.052C61.2315 174.687 62.0808 175.004 63.0888 175.004C64.5448 175.004 65.5808 174.379 66.1968 173.128H70.4248C69.9768 174.621 69.1182 175.853 67.8488 176.824C66.5795 177.776 65.0208 178.252 63.1728 178.252C61.6795 178.252 60.3355 177.925 59.1408 177.272C57.9648 176.6 57.0408 175.657 56.3688 174.444C55.7155 173.231 55.3888 171.831 55.3888 170.244C55.3888 168.639 55.7155 167.229 56.3688 166.016C57.0222 164.803 57.9368 163.869 59.1128 163.216C60.2888 162.563 61.6422 162.236 63.1728 162.236C64.6475 162.236 65.9635 162.553 67.1208 163.188C68.2968 163.823 69.2022 164.728 69.8368 165.904C70.4902 167.061 70.8168 168.396 70.8168 169.908ZM66.7568 168.788C66.7382 167.78 66.3742 166.977 65.6648 166.38C64.9555 165.764 64.0875 165.456 63.0608 165.456C62.0902 165.456 61.2688 165.755 60.5968 166.352C59.9435 166.931 59.5422 167.743 59.3928 168.788H66.7568ZM92.6421 162.264C94.5461 162.264 96.0768 162.852 97.2341 164.028C98.4101 165.185 98.9981 166.809 98.9981 168.9V178H95.0781V169.432C95.0781 168.219 94.7701 167.295 94.1541 166.66C93.5381 166.007 92.6981 165.68 91.6341 165.68C90.5701 165.68 89.7208 166.007 89.0861 166.66C88.4701 167.295 88.1621 168.219 88.1621 169.432V178H84.2421V169.432C84.2421 168.219 83.9341 167.295 83.3181 166.66C82.7021 166.007 81.8621 165.68 80.7981 165.68C79.7154 165.68 78.8568 166.007 78.2221 166.66C77.6061 167.295 77.2981 168.219 77.2981 169.432V178H73.3781V162.488H77.2981V164.364C77.8021 163.711 78.4461 163.197 79.2301 162.824C80.0328 162.451 80.9101 162.264 81.8621 162.264C83.0754 162.264 84.1581 162.525 85.1101 163.048C86.0621 163.552 86.7994 164.28 87.3221 165.232C87.8261 164.336 88.5541 163.617 89.5061 163.076C90.4768 162.535 91.5221 162.264 92.6421 162.264ZM101.41 170.188C101.41 168.62 101.718 167.229 102.334 166.016C102.969 164.803 103.818 163.869 104.882 163.216C105.965 162.563 107.169 162.236 108.494 162.236C109.651 162.236 110.659 162.469 111.518 162.936C112.395 163.403 113.095 163.991 113.618 164.7V162.488H117.566V178H113.618V175.732C113.114 176.46 112.414 177.067 111.518 177.552C110.641 178.019 109.623 178.252 108.466 178.252C107.159 178.252 105.965 177.916 104.882 177.244C103.818 176.572 102.969 175.629 102.334 174.416C101.718 173.184 101.41 171.775 101.41 170.188ZM113.618 170.244C113.618 169.292 113.431 168.48 113.058 167.808C112.685 167.117 112.181 166.595 111.546 166.24C110.911 165.867 110.23 165.68 109.502 165.68C108.774 165.68 108.102 165.857 107.486 166.212C106.87 166.567 106.366 167.089 105.974 167.78C105.601 168.452 105.414 169.255 105.414 170.188C105.414 171.121 105.601 171.943 105.974 172.652C106.366 173.343 106.87 173.875 107.486 174.248C108.121 174.621 108.793 174.808 109.502 174.808C110.23 174.808 110.911 174.631 111.546 174.276C112.181 173.903 112.685 173.38 113.058 172.708C113.431 172.017 113.618 171.196 113.618 170.244ZM125.015 164.896C125.519 164.075 126.172 163.431 126.975 162.964C127.796 162.497 128.729 162.264 129.775 162.264V166.38H128.739C127.507 166.38 126.573 166.669 125.939 167.248C125.323 167.827 125.015 168.835 125.015 170.272V178H121.095V162.488H125.015V164.896ZM146.535 169.908C146.535 170.468 146.497 170.972 146.423 171.42H135.083C135.176 172.54 135.568 173.417 136.259 174.052C136.949 174.687 137.799 175.004 138.807 175.004C140.263 175.004 141.299 174.379 141.915 173.128H146.143C145.695 174.621 144.836 175.853 143.567 176.824C142.297 177.776 140.739 178.252 138.891 178.252C137.397 178.252 136.053 177.925 134.859 177.272C133.683 176.6 132.759 175.657 132.087 174.444C131.433 173.231 131.107 171.831 131.107 170.244C131.107 168.639 131.433 167.229 132.087 166.016C132.74 164.803 133.655 163.869 134.831 163.216C136.007 162.563 137.36 162.236 138.891 162.236C140.365 162.236 141.681 162.553 142.839 163.188C144.015 163.823 144.92 164.728 145.555 165.904C146.208 167.061 146.535 168.396 146.535 169.908ZM142.475 168.788C142.456 167.78 142.092 166.977 141.383 166.38C140.673 165.764 139.805 165.456 138.779 165.456C137.808 165.456 136.987 165.755 136.315 166.352C135.661 166.931 135.26 167.743 135.111 168.788H142.475ZM163.516 169.908C163.516 170.468 163.479 170.972 163.404 171.42H152.064C152.157 172.54 152.549 173.417 153.24 174.052C153.931 174.687 154.78 175.004 155.788 175.004C157.244 175.004 158.28 174.379 158.896 173.128H163.124C162.676 174.621 161.817 175.853 160.548 176.824C159.279 177.776 157.72 178.252 155.872 178.252C154.379 178.252 153.035 177.925 151.84 177.272C150.664 176.6 149.74 175.657 149.068 174.444C148.415 173.231 148.088 171.831 148.088 170.244C148.088 168.639 148.415 167.229 149.068 166.016C149.721 164.803 150.636 163.869 151.812 163.216C152.988 162.563 154.341 162.236 155.872 162.236C157.347 162.236 158.663 162.553 159.82 163.188C160.996 163.823 161.901 164.728 162.536 165.904C163.189 167.061 163.516 168.396 163.516 169.908ZM159.456 168.788C159.437 167.78 159.073 166.977 158.364 166.38C157.655 165.764 156.787 165.456 155.76 165.456C154.789 165.456 153.968 165.755 153.296 166.352C152.643 166.931 152.241 167.743 152.092 168.788H159.456ZM167.813 178.196C167.104 178.196 166.516 177.981 166.049 177.552C165.601 177.104 165.377 176.553 165.377 175.9C165.377 175.247 165.601 174.705 166.049 174.276C166.516 173.828 167.104 173.604 167.813 173.604C168.504 173.604 169.073 173.828 169.521 174.276C169.969 174.705 170.193 175.247 170.193 175.9C170.193 176.553 169.969 177.104 169.521 177.552C169.073 177.981 168.504 178.196 167.813 178.196Z"/>
</svg>
