<?xml version="1.0" encoding="utf-8"?>
<!-- Generator: Adobe Illustrator 27.1.0, SVG Export Plug-In . SVG Version: 6.00 Build 0)  -->
<svg version="1.1" xmlns="http://www.w3.org/2000/svg" width="86.4" height="18.07" viewBox="0 0 864 255">
<g>
	<path d="M86.8,142.4c-4.2,1.6-11.4,2.6-16.6,2.6c-5.2,0-10.4-1-15.1-3.6c-4.7-2.6-7.8-6.2-10.4-10.4c-2.6-4.7-3.6-9.9-3.6-15.6
		c0-5.7,1-10.9,3.6-15.1c2.6-4.7,5.7-7.8,10.4-10.4c4.7-2.6,9.4-3.6,15.1-3.6c5.2,0,12,1,18.2,3.6c3.6,1.6,10.4,4.7,17.7,12.5
		c1-7.8,8.3-27,13.5-32.2c-4.7-4.7-13.5-11.4-21.8-15.1c-8.3-3.6-17.2-5.2-27.6-5.2c-13,0-25,3.1-35.9,8.8
		c-10.4,5.7-18.7,13.5-25,23.4C3.1,92,0,103.5,0,115.9s3.1,23.9,8.8,33.8c5.7,9.9,14,18.2,25,23.4c10.4,5.7,22.4,8.8,35.9,8.8
		c10.4,0,19.8-1.6,28.1-5.2c8.3-3.6,19.8-12.5,22.4-15.6c-5.7-7.3-12.5-22.4-14-31.2C101.4,135.7,91,140.9,86.8,142.4z"/>
	<path d="M222.5,58.2c-10.4-5.7-22.4-8.8-35.4-8.8c-13.5,0-25.5,3.1-35.9,8.8c-10.4,5.7-18.7,13.5-24.4,23.4
		c-6.2,9.9-8.8,20.8-8.8,33.3s3.1,23.9,9.4,33.8c6.2,9.9,14.6,18.2,25,23.9c10.4,5.7,22.4,8.8,35.4,8.8c13,0,25-3.1,35.4-8.8
		c10.4-5.7,18.7-14,25-23.9c6.2-9.9,9.4-21.3,9.4-33.8s-3.1-23.4-9.4-33.3C241.2,71.7,232.9,63.9,222.5,58.2z M212.1,131
		c-2.1,4.7-5.7,8.3-9.9,10.4c-4.2,2.6-9.4,3.6-15.1,3.6c-5.7,0-10.4-1-15.1-3.6c-4.2-2.6-7.8-5.7-9.9-10.4
		c-2.6-4.7-3.6-9.9-3.6-15.6c0-5.7,1-10.4,3.6-15.1c2.6-4.7,5.7-7.8,9.9-10.4c4.2-2.6,9.4-3.6,15.1-3.6s10.4,1,14.6,3.6
		s7.8,5.7,9.9,10.4c2.6,4.2,3.6,9.4,3.6,15.1C215.7,121.1,214.2,126.3,212.1,131z"/>
	<path d="M368.1,56.1c-7.3-4.2-15.6-6.2-25-6.2c-9.9,0-18.2,2.1-26,6.2c-3.6,2.1-6.8,4.2-9.4,6.8V52.5l-40,10.4v115.9h40v-72.3
		c0-4.2,1-8.3,2.6-11.4c2.1-3.1,4.7-5.7,7.8-7.8c3.1-1.6,7.3-2.6,10.9-2.6c6.2,0,11.4,2.1,15.6,6.2c4.2,4.2,6.2,9.4,6.2,15.6v72.3
		h40V98.3c0-8.8-2.1-16.6-6.2-23.9C380.5,67.1,375.3,60.8,368.1,56.1z"/>
	<polygon points="464.2,0 424.2,0 424.2,52.5 396.1,52.5 396.1,86.3 424.2,86.3 424.2,178.8 464.2,178.8 464.2,86.3 492.8,86.3 
		492.8,52.5 464.2,52.5 	"/>
	<path d="M597.3,57.7c-9.4-5.2-20.8-8.3-33.3-8.3c-13,0-24.4,3.1-34.3,8.8c-10.4,5.7-18.2,13.5-24.4,23.4
		c-5.7,9.9-8.8,21.3-8.8,33.8c0,13,3.1,24.4,9.4,34.3c6.2,9.9,14.6,17.7,25,23.4c10.4,5.7,22.9,8.3,36.4,8.3
		c10.9,0,20.8-1.6,29.1-5.2c8.8-3.6,16.6-8.8,22.9-16.6l-21.8-21.8c-3.6,4.2-8.3,7.8-13,9.9c-5.2,2.1-10.4,3.1-16.6,3.1
		c-6.8,0-12.5-1.6-17.7-4.2c-4.7-3.1-8.8-6.8-11.4-12.5c-1-1.6-1.6-3.6-2.1-5.2l90.5-0.5c1-3.1,1.6-5.7,1.6-8.3s0.5-5.2,0.5-7.3
		c0-12.5-2.6-23.4-8.3-32.8C614.5,70.2,606.7,62.9,597.3,57.7z M547.9,84.2c4.7-3.1,9.9-4.2,16.1-4.2c5.7,0,10.4,1,14.6,4.2
		c4.2,2.6,7.3,6.2,9.4,10.9c1,2.1,1.6,4.2,2.1,6.2l-54.6,0.5c0.5-1.6,1-3.1,2.1-4.7C540.1,91.5,543.8,87.3,547.9,84.2z"/>
	<path d="M738.7,56.1c-7.3-4.2-15.6-6.2-25-6.2c-9.9,0-18.2,2.1-26,6.2c-3.6,2.1-6.8,4.2-9.4,6.8V52.5l-40,10.4v115.9h40v-72.3
		c0-4.2,1-8.3,2.6-11.4c2.1-3.1,4.7-5.7,7.8-7.8c3.1-1.6,7.3-2.6,10.9-2.6c6.2,0,11.4,2.1,15.6,6.2c4.2,4.2,6.2,9.4,6.2,15.6v72.3
		h40V98.3c0-8.8-2.1-16.6-6.2-23.9S746,60.8,738.7,56.1z"/>
	<polygon points="864,52.5 835.4,52.5 835.4,0 795.4,0 795.4,52.5 766.8,52.5 766.8,86.3 795.4,86.3 795.4,178.8 835.4,178.8 
		835.4,86.3 864,86.3 	"/>
</g>
</svg>
