<?xml version="1.0" encoding="utf-8"?>
<!-- Generator: Adobe Illustrator 27.1.0, SVG Export Plug-In . SVG Version: 6.00 Build 0)  -->
<svg version="1.1" xmlns="http://www.w3.org/2000/svg" width="86.4" height="18.14" viewBox="0 0 864 281.4">
<g>
	<path d="M122,80.9c-10.9-6.6-22.9-9.7-36.8-9.7c-9.7,0-18.7,1.8-27.2,6c-4.2,1.8-7.8,4.2-11.5,7.2V74.3L0,86.3v196.2h45.9v-71.8
		c3.6,3,7.2,5.4,12.1,7.2c8.5,3.6,17.5,6,27.2,6c13.9,0,26-3.6,36.8-10.3c10.9-6.6,19.3-15.7,25.4-27.2c6-11.5,9.1-24.2,9.1-39.2
		c0-14.5-3-27.8-9.7-39.2C140.7,96.6,132.2,87.5,122,80.9z M105.1,164.8c-3,5.4-6.6,9.1-12.1,12.1c-4.8,3-10.9,4.2-16.9,4.2
		c-6,0-12.1-1.2-16.9-4.2c-4.8-3-9.1-7.2-11.5-12.1c-3-5.4-4.2-10.9-4.2-18.1c0-6.6,1.2-12.7,4.2-18.1c3-5.4,6.6-9.1,11.5-12.1
		c4.8-3,10.9-4.2,16.9-4.2c6.6,0,12.1,1.2,16.9,4.2s8.5,7.2,11.5,12.1c3,5.4,4.2,11.5,4.2,18.1C109.3,154,108.1,159.4,105.1,164.8z"
		/>
	<path d="M428.1,79.1c-12.1-6.6-26-10.3-41.1-10.3c-15.7,0-29.6,3.6-41.7,10.3c-12.1,6.6-21.7,15.7-28.4,27.2
		c-1.2,1.8-1.8,3.6-3,5.4c-1.2-2.4-2.4-5.4-3.6-7.8c-6.6-10.9-15.1-19.9-26.6-26c-11.5-6-24.2-9.7-38.6-9.7
		c-15.1,0-28.4,3.6-40.5,9.7c-12.1,6.6-21.1,15.7-28.4,27.2c-6.6,11.5-10.3,24.8-10.3,39.2c0,15.1,3.6,28.4,10.9,39.8
		c7.2,11.5,16.9,20.5,29,27.2c12.1,6.6,26.6,9.7,42.3,9.7c12.7,0,24.2-1.8,33.8-6c6.6-2.4,15.1-8.5,19.9-13.3
		c-10.9-15.7-16.3-32-16.3-32c-4.2,4.8-12.7,9.7-18.7,12.1c-6,2.4-12.1,3.6-19.3,3.6c-7.8,0-14.5-1.8-20.5-4.8
		c-6-3.6-10.3-7.8-13.3-14.5c-1.2-1.8-1.8-4.2-2.4-6l95.4-0.6c1.8,8.5,4.2,16.3,9.1,23.5c7.2,11.5,16.9,21.1,29,27.8
		s26,10.3,41.1,10.3c15.1,0,29-3.6,41.1-10.3c12.1-6.6,21.7-16.3,29-27.8c7.2-11.5,10.9-24.8,10.9-39.2s-3.6-27.2-10.9-38.6
		C449.8,95.4,440.2,85.7,428.1,79.1z M213.1,129.2c0.6-1.8,1.2-3.6,2.4-5.4c3-6,7.2-10.9,12.1-14.5c5.4-3.6,11.5-5.4,18.7-5.4
		c6.6,0,12.1,1.2,16.9,4.8c4.8,3,8.5,7.2,10.9,12.7c1.2,2.4,1.8,4.8,2.4,7.2L213.1,129.2z M416,164.2c-2.4,5.4-6.6,9.7-11.5,12.1
		c-4.8,3-10.9,4.2-17.5,4.2c-6.6,0-12.1-1.2-17.5-4.2c-4.8-3-9.1-6.6-11.5-12.1c-3-5.4-4.2-11.5-4.2-18.1c0-6.6,1.2-12.1,4.2-17.5
		c3-5.4,6.6-9.1,11.5-12.1c4.8-3,10.9-4.2,17.5-4.2c6.6,0,12.1,1.2,16.9,4.2s9.1,6.6,11.5,12.1c3,4.8,4.2,10.9,4.2,17.5
		C420.2,152.8,418.4,158.8,416,164.2z"/>
	<path d="M602,79.7C591.1,73.1,579,70,565.1,70c-9.7,0-18.7,1.8-27.2,6c-4.2,1.8-7.8,4.2-11.5,7.2V73.1L480,85.1v196.2h45.9v-71.8
		c3.6,3,7.2,5.4,12.1,7.2c8.5,3.6,17.5,6,27.2,6c13.9,0,26-3.6,36.8-10.3s19.3-15.7,25.4-27.2c6-11.5,9.1-24.2,9.1-39.2
		c0-14.5-3-27.8-9.7-39.2C621.3,95.4,612.8,86.3,602,79.7z M585.7,163.6c-3,5.4-6.6,9.1-12.1,12.1c-4.8,3-10.9,4.2-16.9,4.2
		s-12.1-1.2-16.9-4.2c-4.8-3-9.1-7.2-11.5-12.1c-3-5.4-4.2-10.9-4.2-18.1c0-6.6,1.2-12.7,4.2-18.1c3-5.4,6.6-9.1,11.5-12.1
		c4.8-3,10.9-4.2,16.9-4.2c6.6,0,12.1,1.2,16.9,4.2s8.5,7.2,11.5,12.1c3,5.4,4.2,11.5,4.2,18.1C589.9,152.8,588.7,158.8,585.7,163.6
		z"/>
	<rect x="650.3" width="46.5" height="219.2"/>
	<path d="M853.7,104.5c-6.6-10.9-15.1-19.9-26.6-26c-10.9-6-24.2-9.7-38.6-9.7c-15.1,0-28.4,3.6-39.8,10.3
		c-12.1,6.6-21.1,15.7-28.4,27.2c-6.6,11.5-10.3,24.8-10.3,39.2c0,15.1,3.6,28.4,10.9,39.8c7.2,11.5,16.9,20.5,29,27.2
		c12.1,6.6,26.6,9.7,42.3,9.7c12.7,0,24.2-1.8,33.8-6c10.3-4.2,19.3-10.3,26.6-19.3l-25.4-25.4c-4.2,4.8-9.7,9.1-15.1,11.5
		c-6,2.4-12.1,3.6-19.3,3.6c-7.8,0-14.5-1.8-20.5-4.8c-5.4-3.6-10.3-7.8-13.3-14.5c-1.2-1.8-1.8-4.2-2.4-6l105.1-0.6
		c1.2-3.6,1.8-6.6,1.8-9.7c0-3,0.6-6,0.6-8.5C863.4,128.6,860.4,115.9,853.7,104.5z M755.9,129.8c0.6-1.8,1.2-3.6,2.4-5.4
		c3-6,7.2-10.9,12.7-14.5c5.4-3.6,11.5-4.8,18.7-4.8c6.6,0,12.1,1.2,16.9,4.8c4.8,3,8.5,7.2,10.9,12.7c1.2,2.4,1.8,4.8,2.4,7.2
		L755.9,129.8z"/>
</g>
</svg>
