<svg width="78.38" height="18.97" viewBox="0 0 783.8 189.7" fill="white" xmlns="http://www.w3.org/2000/svg">
<path d="M839.499 0C832.499 0 826.699 2.3 821.899 7C817.099 11.7 814.699 17.5 814.699 24.5C814.699 31.3 817.099 37.1 821.899 42C826.699 46.9 832.499 49.3 839.499 49.3C846.899 49.3 852.799 46.9 857.199 42C861.699 37.2 863.899 31.3 863.899 24.5C863.899 17.5 861.699 11.7 857.199 7C852.799 2.3 846.899 0 839.499 0Z" fill="#231F20"/>
<path d="M153.199 46.9999C145.399 42.5999 136.299 40.3999 125.999 40.3999C115.499 40.3999 106.099 42.6999 97.6992 47.3999C89.2992 52.0999 82.6992 58.4999 77.8992 66.5999C73.0992 74.7999 70.6992 83.8999 70.6992 94.0999C70.6992 104.6 73.1992 114 78.0992 122.2C83.0992 130.4 89.8992 136.8 98.4992 141.4C107.099 146 117.099 148.3 128.299 148.3C137.099 148.3 145.099 146.8 152.299 143.9C159.499 141 165.699 136.5 170.799 130.4L152.699 112.5C149.599 116 145.999 118.7 141.899 120.5C137.799 122.3 133.299 123.2 128.299 123.2C122.799 123.2 117.999 122 113.899 119.7C109.899 117.4 106.699 114 104.499 109.6C103.799 108.2 103.299 106.8 102.799 105.3L176.699 104.9C177.399 102.3 177.899 99.9999 178.099 97.9999C178.299 95.8999 178.399 93.8999 178.399 91.8999C178.399 81.7999 176.099 72.8999 171.599 65.0999C167.199 57.4999 160.999 51.3999 153.199 46.9999ZM113.099 68.8999C116.899 66.4999 121.299 65.2999 126.399 65.2999C131.099 65.2999 135.099 66.3999 138.399 68.4999C141.699 70.5999 144.199 73.5999 145.899 77.4999C146.599 78.9999 147.099 80.7999 147.499 82.5999L102.799 82.8999C103.199 81.4999 103.699 80.1999 104.299 78.8999C106.499 74.5999 109.399 71.2999 113.099 68.8999Z" fill="white"/>
<path d="M264.8 51.2002C262.1 48.6002 259 46.4002 255.3 44.7002C249.7 42.0002 243.4 40.7002 236.5 40.7002C227 40.7002 218.5 43.0002 211 47.6002C203.5 52.2002 197.6 58.6002 193.4 66.7002C189.1 74.9002 187 84.1002 187 94.5002C187 104.9 189.1 114 193.4 122C197.7 130 203.5 136.4 210.9 141.1C218.3 145.9 226.9 148.2 236.5 148.2C243.3 148.2 249.5 146.9 255.2 144.2C258.9 142.5 262 140.2 264.8 137.6V189.7H297.1V51.2002L264.8 42.7002V51.2002ZM243.1 118.6C238.7 118.6 234.7 117.6 231.2 115.5C227.7 113.4 224.9 110.6 223 106.9C221.1 103.2 220.1 99.0002 220.1 94.4002C220.1 89.7002 221.1 85.5002 223.1 81.9002C225.1 78.2002 227.8 75.3002 231.3 73.3002C234.8 71.2002 238.8 70.2002 243.3 70.2002C247.8 70.2002 251.8 71.2002 255.2 73.3002C258.6 75.4002 261.3 78.2002 263.3 81.8002C265.3 85.4002 266.3 89.6002 266.3 94.2002C266.3 101.4 264.1 107.3 259.8 111.9C255.5 116.4 249.9 118.6 243.1 118.6Z" fill="white"/>
<path d="M372.2 102.1C372.2 107.5 370.8 111.7 368.1 114.9C365.3 118 361.5 119.6 356.7 119.6C353.4 119.6 350.6 118.9 348.2 117.5C345.8 116.1 343.9 114.1 342.7 111.4C341.4 108.8 340.8 105.7 340.8 102.2V42.7002L308 51.2002V102.4C308 111.3 310.1 119.2 314.2 126.1C318.3 133 324.1 138.4 331.5 142.4C338.9 146.4 347.3 148.4 356.7 148.4C366.3 148.4 374.8 146.5 382 142.6C389.2 138.7 394.9 133.3 398.9 126.4C402.9 119.5 405 111.6 405 102.5V51.2002L372.3 42.7002V102.1H372.2Z" fill="white"/>
<path d="M672 0H639.3V42.7H616.1V70.6H639.3V146.1H672V70.6H695.4V42.7H672V0Z" fill="white"/>
<path d="M769.4 90.0002C765.6 87.5002 761.5 85.6002 757.3 84.3002C753.1 83.0002 749 81.8002 745.3 80.8002C741.5 79.8002 738.4 78.7002 735.9 77.4002C733.4 76.1002 732.2 74.4002 732.2 72.3002C732.2 70.5002 733.1 69.0002 735 67.8002C736.8 66.7002 739.6 66.1002 743.3 66.1002C747.1 66.1002 751.1 66.9002 755.1 68.5002C759.1 70.1002 762.8 72.9002 766.1 76.7002L784.6 57.8002C780.1 51.8002 774 47.3002 766.5 44.3002C759 41.3002 750.9 39.7002 742.3 39.7002C733.7 39.7002 726.2 41.1002 720 44.0002C713.8 46.8002 708.9 50.7002 705.5 55.6002C702.1 60.5002 700.4 66.3002 700.4 72.9002C700.4 79.3002 701.6 84.5002 704 88.4002C706.4 92.4002 709.5 95.5002 713.4 97.8002C717.2 100.1 721.3 101.9 725.5 103.2C729.8 104.5 733.8 105.8 737.7 106.8C741.6 107.9 744.8 109 747.2 110.2C749.6 111.4 750.8 113.3 750.8 115.8C750.8 117.9 749.8 119.6 747.7 120.7C745.6 121.8 742.8 122.4 739.3 122.4C733.6 122.4 728.5 121.4 723.9 119.3C719.3 117.2 715.2 114.4 711.7 110.7L693 129.4C696.7 133.2 701 136.6 706 139.5C711 142.4 716.4 144.7 722.4 146.3C728.4 147.9 734.4 148.7 740.5 148.7C753.4 148.7 763.6 145.7 771.2 139.7C778.8 133.7 782.6 125.6 782.6 115.6C782.6 109.1 781.4 103.8 779 99.8002C776.3 95.8002 773.2 92.5002 769.4 90.0002Z" fill="white"/>
<path d="M495 46.9999C487.2 42.5999 478.1 40.3999 467.8 40.3999C457.3 40.3999 447.9 42.6999 439.5 47.3999C431.1 52.0999 424.5 58.4999 419.7 66.5999C414.9 74.7999 412.5 83.8999 412.5 94.0999C412.5 104.6 415 114 419.9 122.2C424.9 130.4 431.7 136.8 440.3 141.4C448.9 146 458.9 148.3 470.1 148.3C478.9 148.3 486.9 146.8 494.1 143.9C501.3 141 507.5 136.5 512.6 130.4L494.5 112.5C491.4 116 487.8 118.7 483.7 120.5C479.6 122.3 475.1 123.2 470.1 123.2C464.6 123.2 459.8 122 455.7 119.7C451.7 117.4 448.5 114 446.3 109.6C445.6 108.2 445.1 106.8 444.6 105.3L518.5 104.9C519.2 102.3 519.7 99.9999 519.9 97.9999C520.1 95.8999 520.2 93.8999 520.2 91.8999C520.2 81.7999 517.9 72.8999 513.4 65.0999C509 57.4999 502.8 51.3999 495 46.9999ZM454.9 68.8999C458.7 66.4999 463.1 65.2999 468.2 65.2999C472.9 65.2999 476.9 66.3999 480.2 68.4999C483.5 70.5999 486 73.5999 487.8 77.4999C488.5 78.9999 489 80.7999 489.4 82.5999L444.7 82.8999C445.1 81.4999 445.6 80.1999 446.2 78.8999C448.2 74.5999 451.2 71.2999 454.9 68.8999Z" fill="white"/>
<path d="M561.899 67.8002C563.699 66.7002 566.499 66.1002 570.199 66.1002C573.999 66.1002 577.999 66.9002 581.999 68.5002C585.999 70.1002 589.699 72.9002 592.999 76.7002L611.499 57.8002C606.999 51.8002 600.899 47.3002 593.399 44.3002C585.899 41.3002 577.799 39.7002 569.199 39.7002C560.499 39.7002 553.099 41.1002 546.899 44.0002C540.699 46.8002 535.799 50.7002 532.399 55.6002C528.999 60.5002 527.299 66.3002 527.299 72.9002C527.299 79.3002 528.499 84.5002 530.899 88.4002C533.299 92.4002 536.399 95.5002 540.299 97.8002C544.099 100.1 548.199 101.9 552.399 103.2C556.699 104.5 560.699 105.7 564.599 106.8C568.499 107.9 571.699 109 574.099 110.2C576.499 111.4 577.699 113.3 577.699 115.8C577.699 117.9 576.699 119.6 574.599 120.7C572.499 121.8 569.699 122.4 566.199 122.4C560.499 122.4 555.399 121.4 550.799 119.3C546.199 117.2 537.799 111.7 528.999 105.1C525.999 120.3 519.699 130.7 519.699 130.7C524.899 134.8 527.899 136.5 532.899 139.4C537.899 142.3 543.299 144.6 549.299 146.2C555.299 147.8 561.299 148.6 567.399 148.6C580.299 148.6 590.499 145.6 598.099 139.6C605.699 133.6 609.499 125.5 609.499 115.5C609.499 109 608.299 103.7 605.899 99.7002C603.499 95.7002 600.399 92.4002 596.499 89.9002C592.699 87.4002 588.599 85.5002 584.399 84.2002C580.099 82.9002 576.099 81.7002 572.399 80.7002C568.599 79.7002 565.499 78.6002 562.999 77.3002C560.499 76.0002 559.299 74.3002 559.299 72.2002C559.099 70.5002 559.999 69.0002 561.899 67.8002Z" fill="white"/>
<path d="M72.4 42.8001C68.6 41.3001 64.3 40.6001 59.3 40.6001C48.1 40.6001 39.3 43.9001 32.8 50.6001L32.7 50.7001V42.7001L0 51.2001V146H32.7V89.5001C32.7 82.8001 34.3 77.8001 37.5 74.5001C40.7 71.2001 45 69.5001 50.6 69.5001C53.3 69.5001 55.7 69.9001 57.8 70.8001C59.9 71.7001 60.2 72.5001 62.9 74.2001C66.3 63.0001 73.6 52.1001 79.2 46.8001C77.6 45.4001 75 43.9001 72.4 42.8001Z" fill="white"/>
</svg>
