<?xml version="1.0" encoding="utf-8"?>
<!-- Generator: Adobe Illustrator 27.1.0, SVG Export Plug-In . SVG Version: 6.00 Build 0)  -->
<svg width="78.08" height="20.75" viewBox="15 0 780.8 207.5" fill="white" xmlns="http://www.w3.org/2000/svg">
<g>
	<g>
		<path d="M24.6,158c7.8,4.2,16.6,6.2,26.4,6.2c10.1,0,18.9-2,26.5-6.1s13.5-9.7,17.7-16.9s6.4-15.6,6.4-25.1V62.4l-34.3-8.9v62.2
			c0,5.7-1.4,10.1-4.3,13.4c-2.9,3.3-6.9,4.9-11.9,4.9c-3.4,0-6.4-0.7-8.9-2.2s-4.5-3.6-5.8-6.4c-1.3-2.8-2-6-2-9.7V53.5L0,62.4
			v53.7c0,9.4,2.2,17.6,6.5,24.9C10.8,148.2,16.8,153.9,24.6,158z"/>
		<path d="M147.3,154.4c2.6,2.1,5.5,3.9,8.7,5.4c6.1,2.8,12.9,4.2,20.3,4.2c10.1,0,19.2-2.5,27.2-7.5s14.3-11.7,18.8-20.1
			s6.8-18,6.8-28.9c0-10.8-2.3-20.5-6.9-29c-4.6-8.5-10.9-15.2-18.8-20.1c-8-4.9-17-7.4-27.1-7.4c-7.3,0-14,1.5-20.1,4.5
			c-3.1,1.5-5.9,3.3-8.5,5.4v-7.6l-34.3,8.9v145.1h33.9L147.3,154.4L147.3,154.4z M157.5,85.5c3.6-2.2,7.8-3.2,12.6-3.2
			s8.9,1.1,12.5,3.2c3.6,2.2,6.4,5.2,8.6,9c2.2,3.9,3.2,8.2,3.2,13.2c0,4.9-1.1,9.3-3.2,13.2c-2.2,3.9-5.1,6.9-8.7,9
			c-3.6,2.2-7.8,3.2-12.6,3.2c-4.6,0-8.7-1.1-12.4-3.2c-3.6-2.2-6.5-5.2-8.6-9c-2.1-3.9-3.1-8.2-3.1-13.2c0-4.9,1-9.3,3.1-13.2
			C151,90.6,153.8,87.6,157.5,85.5z"/>
		<path d="M354.2,161.8V0h-34.3v60.2c-2.4-1.8-5.1-3.4-8-4.8c-6.1-2.7-12.8-4.1-20.1-4.1c-10.3,0-19.4,2.5-27.4,7.4
			s-14.3,11.6-18.7,20.1c-4.5,8.5-6.7,18.1-6.7,29c0,10.8,2.2,20.5,6.7,29s10.7,15.2,18.6,20.1c7.9,4.9,17.1,7.4,27.5,7.4
			c7.3,0,14-1.5,20.1-4.6c3.2-1.6,6.1-3.5,8.7-5.7v8.1h33.6V161.8z M310.5,129.8c-3.6,2.2-7.8,3.2-12.7,3.2c-4.6,0-8.8-1.1-12.5-3.2
			c-3.7-2.2-6.6-5.2-8.6-9c-2-3.9-3-8.2-3-13.2c0-4.9,1.1-9.3,3.2-13c2.2-3.8,5-6.8,8.6-9s7.7-3.3,12.5-3.3s8.9,1.1,12.5,3.2
			c3.6,2.2,6.4,5.1,8.4,8.9s3,8.1,3,13c0,5.1-1,9.5-3,13.4C316.8,124.7,314.1,127.7,310.5,129.8z"/>
		<path d="M443.6,161.8h33.7V62.4l-33.7-8.9v9c-2.9-2.8-6.3-5.2-10.1-7c-5.9-2.8-12.4-4.2-19.7-4.2c-10,0-18.8,2.4-26.6,7.2
			s-14,11.5-18.5,20.1c-4.5,8.5-6.8,18.2-6.8,29.1c0,10.8,2.3,20.5,6.8,28.9s10.7,15.1,18.6,20.1s16.7,7.5,26.5,7.5
			c7.4,0,14.1-1.4,20-4.2c3.8-1.8,7.1-4.1,9.9-6.9L443.6,161.8L443.6,161.8z M420.8,133.1c-4.6,0-8.7-1.1-12.4-3.2
			c-3.6-2.2-6.5-5.2-8.7-9c-2.2-3.9-3.2-8.2-3.2-13.2c0-4.9,1.1-9.3,3.2-13.2c2.2-3.9,5.1-6.9,8.7-9c3.6-2.2,7.8-3.2,12.4-3.2
			c4.8,0,9,1.1,12.7,3.2c3.7,2.2,6.5,5.1,8.5,8.9c1.9,3.8,2.9,8.1,2.9,13c0,7.6-2.2,13.7-6.6,18.5
			C433.9,130.7,428.1,133.1,420.8,133.1z"/>
		<polygon points="511.3,161.8 545.7,161.8 545.7,82.7 570.2,82.7 570.2,53.5 545.7,53.5 545.7,8.7 511.3,8.7 511.3,53.5 487,53.5 
			487,82.7 511.3,82.7 		"/>
		<path d="M658.6,58.4c-8.2-4.6-17.7-6.9-28.5-6.9c-11,0-20.9,2.5-29.6,7.4c-8.8,4.9-15.7,11.6-20.7,20.2
			c-5.1,8.5-7.6,18.2-7.6,28.9c0,11,2.6,20.8,7.8,29.4s12.3,15.3,21.4,20.2c9.1,4.8,19.5,7.2,31.2,7.2c9.2,0,17.6-1.5,25.2-4.6
			c7.6-3,14-7.8,19.4-14.2l-18.9-18.7c-3.3,3.7-7.1,6.5-11.4,8.4c-4.3,1.9-9.1,2.8-14.3,2.8c-5.8,0-10.8-1.2-15-3.7s-7.5-6-9.8-10.6
			c-0.7-1.4-1.3-3-1.8-4.5l77.4-0.4c0.7-2.7,1.2-5.1,1.4-7.2c0.2-2.2,0.3-4.3,0.3-6.4c0-10.5-2.4-19.9-7.1-28.1
			C673.2,69.4,666.8,63,658.6,58.4z M616.6,81.4c3.9-2.5,8.6-3.8,13.9-3.8c4.9,0,9.1,1.1,12.6,3.3s6.1,5.4,7.9,9.5
			c0.7,1.6,1.2,3.4,1.7,5.3L605.9,96c0.4-1.4,1-2.8,1.6-4.1C609.6,87.4,612.7,83.9,616.6,81.4z"/>
		<path d="M728.7,80.3c1.9-1.2,4.8-1.8,8.7-1.8c4,0,8.1,0.9,12.4,2.6c4.2,1.7,8.1,4.6,11.5,8.6l19.4-19.8
			c-4.8-6.2-11.1-11-18.9-14.2c-7.9-3.2-16.4-4.8-25.4-4.8c-9.1,0-16.9,1.5-23.4,4.5s-11.6,7-15.2,12.1c-3.6,5.1-5.4,11.2-5.4,18.2
			c0,6.7,1.3,12.1,3.8,16.3c2.5,4.2,5.8,7.4,9.8,9.8s8.2,4.3,12.7,5.7c4.5,1.4,8.7,2.7,12.8,3.8c4.1,1.1,7.4,2.3,9.9,3.6
			c2.5,1.3,3.8,3.2,3.8,5.9c0,2.2-1.1,3.9-3.2,5.1c-2.2,1.2-5.1,1.8-8.8,1.8c-5.9,0-11.3-1.1-16.2-3.2c-4.8-2.2-13.7-7.9-22.9-14.8
			c-3.1,16-9.8,26.9-9.8,26.9c5.4,4.3,8.6,6.1,13.8,9.1s10.9,5.4,17.2,7.1c6.2,1.7,12.6,2.6,18.9,2.6c13.5,0,24.3-3.2,32.2-9.5
			s11.9-14.7,11.9-25.3c0-6.8-1.3-12.4-3.8-16.6s-5.8-7.7-9.8-10.3c-4-2.6-8.2-4.6-12.7-6s-8.7-2.6-12.6-3.7c-3.9-1-7.2-2.2-9.8-3.6
			c-2.6-1.3-3.9-3.1-3.9-5.4C725.8,83,726.8,81.5,728.7,80.3z"/>
	</g>
</g>
</svg>
