<svg width="28" height="28" viewBox="0 0 28 28" fill="none" xmlns="http://www.w3.org/2000/svg">
<mask id="mask0_2081_78629" style="mask-type:alpha" maskUnits="userSpaceOnUse" x="0" y="0" width="28" height="28">
<rect width="28" height="28" fill="#D9D9D9"/>
</mask>
<g mask="url(#mask0_2081_78629)">
<path d="M21.2042 15.9766C22.5098 15.028 23.2885 13.759 23.5403 12.1696C23.7918 10.5813 23.4433 9.13427 22.4947 7.82861C21.5461 6.52294 20.2774 5.74401 18.6886 5.49182C17.0996 5.24071 15.6523 5.58947 14.3467 6.53809C13.8275 6.91525 13.396 7.35473 13.052 7.85652C12.7079 8.35939 12.4499 8.88956 12.2781 9.44702C13.08 9.65755 13.8291 10.0026 14.5255 10.482C15.2225 10.961 15.8339 11.5624 16.3596 12.286C16.8854 13.0096 17.2683 13.7769 17.5085 14.5878C17.7493 15.3982 17.846 16.2173 17.7984 17.045C18.3816 17.0539 18.9656 16.9724 19.5502 16.8005C20.1337 16.6284 20.685 16.3538 21.2042 15.9766ZM16.0572 16.8319C16.0704 16.2215 15.9855 15.6164 15.8027 15.0167C15.6187 14.4168 15.3324 13.8495 14.9439 13.3146C14.5553 12.7798 14.1041 12.3322 13.5905 11.9718C13.0766 11.6126 12.5274 11.3449 11.9428 11.1688C11.9296 11.7792 12.0145 12.3843 12.1973 12.984C12.3813 13.5839 12.6676 14.1512 13.0561 14.6861C13.4447 15.221 13.8959 15.6685 14.4096 16.0289C14.9234 16.3881 15.4726 16.6558 16.0572 16.8319ZM13.6533 21.4626C14.1725 21.0855 14.604 20.646 14.948 20.1442C15.2921 19.6413 15.5501 19.1111 15.7219 18.5537C14.92 18.3432 14.1709 17.9982 13.4745 17.5187C12.7775 17.0397 12.1661 16.4383 11.6404 15.7147C11.1146 14.9911 10.7317 14.2238 10.4915 13.4129C10.2507 12.6025 10.154 11.7834 10.2016 10.9557C9.61835 10.9468 9.03442 11.0283 8.44981 11.2002C7.86628 11.3723 7.31496 11.6469 6.79584 12.0241C5.49018 12.9727 4.71156 14.2412 4.46 15.8295C4.20826 17.4189 4.5567 18.8664 5.50532 20.1721C6.45394 21.4778 7.72273 22.2561 9.31168 22.5073C10.9005 22.7594 12.3477 22.4112 13.6533 21.4626ZM14.682 22.8784C12.9673 24.1242 11.0849 24.5847 9.0349 24.26C6.98377 23.9352 5.33532 22.9154 4.08954 21.2007C2.84376 19.4861 2.38331 17.6032 2.70818 15.552C3.03287 13.502 4.05255 11.8541 5.76722 10.6083C6.49084 10.0826 7.2541 9.70203 8.05701 9.4667C8.85975 9.23246 9.67497 9.13913 10.5027 9.1867C10.7132 8.3848 11.0542 7.63809 11.5257 6.94657C11.997 6.25614 12.5944 5.64805 13.318 5.12231C15.0327 3.87653 16.9154 3.41576 18.966 3.74C21.0165 4.06532 22.6647 5.08531 23.9105 6.79998C25.1562 8.51465 25.617 10.3973 25.2928 12.448C24.9674 14.4985 23.9475 16.1466 22.2328 17.3924C21.5092 17.9181 20.746 18.2981 19.9432 18.5324C19.1403 18.7677 18.325 18.8616 17.4973 18.814C17.2868 19.6159 16.9459 20.3621 16.4746 21.0525C16.0031 21.744 15.4056 22.3527 14.682 22.8784Z" fill="white"/>
</g>
</svg>
