<svg width="28" height="28" viewBox="0 0 28 28" fill="none" xmlns="http://www.w3.org/2000/svg">
<mask id="mask0_2081_78644" style="mask-type:alpha" maskUnits="userSpaceOnUse" x="0" y="0" width="28" height="28">
<rect width="28" height="28" fill="#D9D9D9"/>
</mask>
<g mask="url(#mask0_2081_78644)">
<path d="M14.2917 17.6167C15.5167 17.6167 16.562 17.2227 17.4277 16.4349C18.2925 15.6477 18.725 14.6903 18.725 13.5625C18.725 12.5903 18.4139 11.7592 17.7917 11.0694C17.1694 10.3787 16.4014 10.0334 15.4875 10.0334C14.6903 10.0334 14.0148 10.2908 13.461 10.8057C12.9064 11.3214 12.6292 11.9486 12.6292 12.6875C12.6292 13.0181 12.6926 13.3342 12.8193 13.636C12.9453 13.937 13.1347 14.2236 13.3875 14.4959L14.6708 13.2417C14.5736 13.1834 14.5009 13.1102 14.4527 13.0224C14.4037 12.9352 14.3792 12.8334 14.3792 12.7167C14.3792 12.4639 14.4764 12.25 14.6708 12.075C14.8653 11.9 15.1375 11.8125 15.4875 11.8125C15.9153 11.8125 16.275 11.9825 16.5667 12.3224C16.8583 12.663 17.0042 13.0861 17.0042 13.5917C17.0042 14.2139 16.7514 14.7486 16.2458 15.1959C15.7403 15.6431 15.0986 15.8667 14.3208 15.8667C13.4069 15.8667 12.6245 15.4972 11.9735 14.7584C11.3217 14.0195 10.9958 13.1056 10.9958 12.0167C10.9958 11.4528 11.1028 10.913 11.3167 10.3974C11.5305 9.88246 11.8417 9.42085 12.25 9.01252L10.9958 7.75835C10.4319 8.32224 9.99444 8.96858 9.68333 9.69735C9.37222 10.4269 9.21666 11.1903 9.21666 11.9875C9.21666 13.5431 9.70783 14.8704 10.6902 15.9694C11.6717 17.0676 12.8722 17.6167 14.2917 17.6167ZM7.58333 25.0834V20.3875C6.47499 19.3764 5.61438 18.2148 5.0015 16.9027C4.38938 15.5898 4.08333 14.2334 4.08333 12.8334C4.08333 10.0722 5.04583 7.72919 6.97083 5.80419C8.89583 3.87919 11.2389 2.91669 14 2.91669C16.275 2.91669 18.3019 3.59219 20.0807 4.94319C21.8602 6.29496 23.0222 8.05002 23.5667 10.2084L24.9083 15.6042C25.0056 15.9347 24.9472 16.2361 24.7333 16.5084C24.5194 16.7806 24.2375 16.9167 23.8875 16.9167H21.5833V20.65C21.5833 21.2334 21.3792 21.7292 20.9708 22.1375C20.5625 22.5459 20.0667 22.75 19.4833 22.75H16.9167V25.0834H15.1667V21H19.4833C19.5806 21 19.6634 20.9662 19.7318 20.8985C19.7995 20.8301 19.8333 20.7472 19.8333 20.65V15.1667H22.9833L21.875 10.6459C21.4278 8.87641 20.4703 7.43752 19.0027 6.32919C17.5342 5.22085 15.8667 4.66669 14 4.66669C11.7444 4.66669 9.81944 5.45419 8.22499 7.02919C6.63055 8.60419 5.83333 10.5195 5.83333 12.775C5.83333 13.9417 6.07172 15.05 6.54849 16.1C7.02449 17.15 7.69999 18.0834 8.57499 18.9L9.33333 19.6V25.0834H7.58333Z" fill="white"/>
</g>
</svg>
