<svg width="28" height="28" viewBox="0 0 28 28" fill="none" xmlns="http://www.w3.org/2000/svg">
<path d="M21.2041 15.9766C22.5097 15.028 23.2884 13.759 23.5402 12.1696C23.7917 10.5813 23.4432 9.13427 22.4946 7.82861C21.546 6.52294 20.2773 5.74401 18.6885 5.49182C17.0995 5.24071 15.6522 5.58947 14.3466 6.53809C13.8275 6.91525 13.3959 7.35473 13.0519 7.85652C12.7078 8.35939 12.4498 8.88956 12.278 9.44702C13.0799 9.65755 13.829 10.0026 14.5254 10.482C15.2224 10.961 15.8338 11.5624 16.3595 12.286C16.8853 13.0096 17.2682 13.7769 17.5084 14.5878C17.7492 15.3982 17.8459 16.2173 17.7983 17.045C18.3816 17.0539 18.9655 16.9724 19.5501 16.8005C20.1336 16.6284 20.685 16.3538 21.2041 15.9766ZM16.0572 16.8319C16.0703 16.2215 15.9855 15.6164 15.8026 15.0167C15.6186 14.4168 15.3324 13.8495 14.9438 13.3146C14.5552 12.7798 14.104 12.3322 13.5904 11.9718C13.0765 11.6126 12.5273 11.3449 11.9427 11.1688C11.9295 11.7792 12.0144 12.3843 12.1972 12.984C12.3812 13.5839 12.6675 14.1512 13.0561 14.6861C13.4446 15.221 13.8958 15.6685 14.4095 16.0289C14.9233 16.3881 15.4725 16.6558 16.0572 16.8319ZM13.6532 21.4626C14.1724 21.0855 14.6039 20.646 14.9479 20.1442C15.292 19.6413 15.55 19.1111 15.7218 18.5537C14.9199 18.3432 14.1708 17.9982 13.4744 17.5187C12.7774 17.0397 12.166 16.4383 11.6403 15.7147C11.1145 14.9911 10.7316 14.2238 10.4914 13.4129C10.2506 12.6025 10.154 11.7834 10.2015 10.9557C9.61826 10.9468 9.03433 11.0283 8.44971 11.2002C7.86619 11.3723 7.31487 11.6469 6.79575 12.0241C5.49009 12.9727 4.71147 14.2412 4.45991 15.8295C4.20817 17.4189 4.55661 18.8664 5.50523 20.1721C6.45385 21.4778 7.72264 22.2561 9.31158 22.5073C10.9004 22.7594 12.3476 22.4112 13.6532 21.4626ZM14.6819 22.8784C12.9672 24.1242 11.0848 24.5847 9.03481 24.26C6.98368 23.9352 5.33523 22.9154 4.08945 21.2007C2.84367 19.4861 2.38322 17.6032 2.70808 15.552C3.03278 13.502 4.05246 11.8541 5.76713 10.6083C6.49075 10.0826 7.25401 9.70203 8.05692 9.4667C8.85966 9.23246 9.67488 9.13913 10.5026 9.1867C10.7131 8.3848 11.0541 7.63809 11.5256 6.94657C11.9969 6.25614 12.5943 5.64805 13.318 5.12231C15.0326 3.87653 16.9153 3.41576 18.966 3.74C21.0165 4.06532 22.6646 5.08531 23.9104 6.79998C25.1561 8.51465 25.6169 10.3973 25.2927 12.448C24.9674 14.4985 23.9474 16.1466 22.2327 17.3924C21.5091 17.9181 20.7459 18.2981 19.9432 18.5324C19.1402 18.7677 18.3249 18.8616 17.4972 18.814C17.2867 19.6159 16.9458 20.3621 16.4745 21.0525C16.003 21.744 15.4055 22.3527 14.6819 22.8784Z" />
</svg>
