<svg width="24" height="24" viewBox="0 0 24 24" fill="none" xmlns="http://www.w3.org/2000/svg">
<path d="M12.3501 23.0833C11.7667 23.0833 11.2709 22.8792 10.8626 22.4708C10.4542 22.0625 10.2501 21.5667 10.2501 20.9833V12.35C10.2501 11.7667 10.4542 11.2708 10.8626 10.8625C11.2709 10.4542 11.7667 10.25 12.3501 10.25H20.9834C21.5667 10.25 22.0626 10.4542 22.4709 10.8625C22.8792 11.2708 23.0834 11.7667 23.0834 12.35V20.9833C23.0834 21.5667 22.8792 22.0625 22.4709 22.4708C22.0626 22.8792 21.5667 23.0833 20.9834 23.0833H12.3501ZM12.3501 21.3333H20.9834C21.0612 21.3333 21.139 21.2944 21.2167 21.2167C21.2945 21.1389 21.3334 21.0611 21.3334 20.9833V12.35C21.3334 12.2722 21.2945 12.1944 21.2167 12.1167C21.139 12.0389 21.0612 12 20.9834 12H12.3501C12.2723 12 12.1945 12.0389 12.1167 12.1167C12.039 12.1944 12.0001 12.2722 12.0001 12.35V20.9833C12.0001 21.0611 12.039 21.1389 12.1167 21.2167C12.1945 21.2944 12.2723 21.3333 12.3501 21.3333ZM5.58341 18.5625V7.68332C5.58341 7.09999 5.78758 6.60416 6.19591 6.19582C6.60425 5.78749 7.10008 5.58332 7.68341 5.58332H18.5626V7.33332H7.68341C7.60564 7.33332 7.52786 7.37221 7.45008 7.44999C7.3723 7.52777 7.33341 7.60555 7.33341 7.68332V18.5625H5.58341ZM0.916748 13.8958V3.01666C0.916748 2.43332 1.12091 1.93749 1.52925 1.52916C1.93758 1.12082 2.43341 0.916656 3.01675 0.916656H13.8959V2.66666H3.01675C2.93897 2.66666 2.86119 2.70555 2.78341 2.78332C2.70564 2.8611 2.66675 2.93888 2.66675 3.01666V13.8958H0.916748Z" />
</svg>
