<svg width="28" height="28" viewBox="0 0 28 28" fill="none" xmlns="http://www.w3.org/2000/svg">
<path d="M14.2916 17.6167C15.5166 17.6167 16.5619 17.2227 17.4276 16.4349C18.2925 15.6477 18.7249 14.6903 18.7249 13.5625C18.7249 12.5903 18.4138 11.7592 17.7916 11.0694C17.1694 10.3787 16.4013 10.0334 15.4874 10.0334C14.6902 10.0334 14.0147 10.2908 13.4609 10.8057C12.9064 11.3214 12.6291 11.9486 12.6291 12.6875C12.6291 13.0181 12.6925 13.3342 12.8193 13.636C12.9453 13.937 13.1346 14.2236 13.3874 14.4959L14.6708 13.2417C14.5735 13.1834 14.5008 13.1102 14.4526 13.0224C14.4036 12.9352 14.3791 12.8334 14.3791 12.7167C14.3791 12.4639 14.4763 12.25 14.6708 12.075C14.8652 11.9 15.1374 11.8125 15.4874 11.8125C15.9152 11.8125 16.2749 11.9825 16.5666 12.3224C16.8583 12.663 17.0041 13.0861 17.0041 13.5917C17.0041 14.2139 16.7513 14.7486 16.2458 15.1959C15.7402 15.6431 15.0985 15.8667 14.3208 15.8667C13.4069 15.8667 12.6244 15.4972 11.9734 14.7584C11.3216 14.0195 10.9958 13.1056 10.9958 12.0167C10.9958 11.4528 11.1027 10.913 11.3166 10.3974C11.5305 9.88246 11.8416 9.42085 12.2499 9.01252L10.9958 7.75835C10.4319 8.32224 9.99436 8.96858 9.68325 9.69735C9.37214 10.4269 9.21659 11.1903 9.21659 11.9875C9.21659 13.5431 9.70775 14.8704 10.6901 15.9694C11.6716 17.0676 12.8721 17.6167 14.2916 17.6167ZM7.58325 25.0834V20.3875C6.47492 19.3764 5.61431 18.2148 5.00142 16.9027C4.38931 15.5898 4.08325 14.2334 4.08325 12.8334C4.08325 10.0722 5.04575 7.72919 6.97075 5.80419C8.89575 3.87919 11.2388 2.91669 13.9999 2.91669C16.2749 2.91669 18.3018 3.59219 20.0806 4.94319C21.8601 6.29496 23.0221 8.05002 23.5666 10.2084L24.9083 15.6042C25.0055 15.9347 24.9471 16.2361 24.7333 16.5084C24.5194 16.7806 24.2374 16.9167 23.8874 16.9167H21.5833V20.65C21.5833 21.2334 21.3791 21.7292 20.9708 22.1375C20.5624 22.5459 20.0666 22.75 19.4833 22.75H16.9166V25.0834H15.1666V21H19.4833C19.5805 21 19.6633 20.9662 19.7318 20.8985C19.7994 20.8301 19.8333 20.7472 19.8333 20.65V15.1667H22.9833L21.8749 10.6459C21.4277 8.87641 20.4703 7.43752 19.0026 6.32919C17.5341 5.22085 15.8666 4.66669 13.9999 4.66669C11.7444 4.66669 9.81936 5.45419 8.22492 7.02919C6.63047 8.60419 5.83325 10.5195 5.83325 12.775C5.83325 13.9417 6.07164 15.05 6.54842 16.1C7.02442 17.15 7.69992 18.0834 8.57492 18.9L9.33325 19.6V25.0834H7.58325Z" />
</svg>
