<svg width="38" height="38" viewBox="4 4 30 30" fill="none" xmlns="http://www.w3.org/2000/svg">
<path d="M9.51953 29.5356V11.7938C9.51953 11.2708 9.69051 10.8383 10.0325 10.4963C10.3744 10.1544 10.8069 9.9834 11.3299 9.9834H28.7097C29.2327 9.9834 29.6652 10.1544 30.0071 10.4963C30.3491 10.8383 30.5201 11.2708 30.5201 11.7938V24.3458C30.5201 24.8688 30.3491 25.3013 30.0071 25.6433C29.6652 25.9853 29.2327 26.1562 28.7097 26.1562H12.8989L9.51953 29.5356ZM10.3644 27.4839L12.5369 25.3114H28.7097C28.9913 25.3114 29.2226 25.2209 29.4037 25.0398C29.5847 24.8588 29.6752 24.6275 29.6752 24.3458V11.7938C29.6752 11.5122 29.5847 11.2808 29.4037 11.0998C29.2226 10.9188 28.9913 10.8282 28.7097 10.8282H11.3299C11.0483 10.8282 10.817 10.9188 10.6359 11.0998C10.4549 11.2808 10.3644 11.5122 10.3644 11.7938V27.4839ZM10.3644 11.7938V10.8282V27.4839V11.7938Z" fill="none"/>
<path d="M10.3644 27.4839L12.5369 25.3114H28.7097C28.9913 25.3114 29.2226 25.2209 29.4037 25.0398C29.5847 24.8588 29.6752 24.6275 29.6752 24.3458V11.7938C29.6752 11.5122 29.5847 11.2808 29.4037 11.0998C29.2226 10.9188 28.9913 10.8282 28.7097 10.8282H11.3299C11.0483 10.8282 10.817 10.9188 10.6359 11.0998C10.4549 11.2808 10.3644 11.5122 10.3644 11.7938M10.3644 27.4839V11.7938M10.3644 27.4839V10.8282V11.7938M9.51953 29.5356V11.7938C9.51953 11.2708 9.69051 10.8383 10.0325 10.4963C10.3744 10.1544 10.8069 9.9834 11.3299 9.9834H28.7097C29.2327 9.9834 29.6652 10.1544 30.0071 10.4963C30.3491 10.8383 30.5201 11.2708 30.5201 11.7938V24.3458C30.5201 24.8688 30.3491 25.3013 30.0071 25.6433C29.6652 25.9853 29.2327 26.1562 28.7097 26.1562H12.8989L9.51953 29.5356Z" fill="none"/>
</svg>
