<svg width="24" height="22" viewBox="0 0 24 22" fill="none" xmlns="http://www.w3.org/2000/svg">
<path d="M10.9524 22C9.50312 22 8.1412 21.7248 6.86658 21.1745C5.59196 20.6241 4.48321 19.8779 3.54034 18.9357C2.59747 17.9929 1.85121 16.8841 1.30155 15.6095C0.75189 14.3349 0.476712 12.973 0.476013 11.5238C0.476013 10.0746 0.751192 8.7127 1.30155 7.4381C1.85191 6.1635 2.59817 5.05476 3.54034 4.11191C4.48321 3.16905 5.59196 2.4228 6.86658 1.87315C8.1412 1.3235 9.50312 1.04832 10.9524 1.04762C11.7381 1.04762 12.5022 1.13073 13.2446 1.29696C13.987 1.46318 14.6896 1.70308 15.3524 2.01667C15.2826 2.19127 15.2302 2.37461 15.1953 2.56667C15.1603 2.75873 15.1429 2.9508 15.1429 3.14286C15.1429 3.3873 15.1691 3.61883 15.2215 3.83743C15.2738 4.05604 15.3437 4.26102 15.431 4.45238C14.7849 4.0508 14.0865 3.73197 13.3357 3.49591C12.5849 3.25984 11.7905 3.14216 10.9524 3.14286C8.6301 3.14286 6.65251 3.95896 5.0196 5.59115C3.38669 7.22334 2.57058 9.20089 2.57128 11.5238C2.57128 13.846 3.38739 15.8236 5.0196 17.4565C6.65181 19.0894 8.6294 19.9055 10.9524 19.9048C13.2746 19.9048 15.2522 19.0887 16.8851 17.4565C18.518 15.8243 19.3341 13.8467 19.3334 11.5238C19.3334 10.8254 19.2503 10.1532 19.0841 9.50714C18.9179 8.86111 18.6867 8.25 18.3906 7.67381C18.6699 7.9008 18.9755 8.0754 19.3072 8.19762C19.639 8.31984 19.9969 8.38095 20.3811 8.38095C20.4684 8.38095 20.5602 8.37676 20.6566 8.36838C20.753 8.36 20.8445 8.34673 20.9311 8.32857C21.0882 8.83492 21.2104 9.35454 21.2977 9.88743C21.385 10.4203 21.4287 10.9658 21.4287 11.5238C21.4287 12.973 21.1539 14.3349 20.6042 15.6095C20.0545 16.8841 19.3079 17.9929 18.3644 18.9357C17.4215 19.8786 16.3127 20.6252 15.0381 21.1755C13.7635 21.7259 12.4016 22.0007 10.9524 22ZM14.6191 10.4762C15.073 10.4762 15.4484 10.3278 15.7453 10.031C16.0421 9.73413 16.1905 9.35873 16.1905 8.90476C16.1905 8.4508 16.0421 8.0754 15.7453 7.77857C15.4484 7.48175 15.073 7.33334 14.6191 7.33334C14.1651 7.33334 13.7897 7.48175 13.4929 7.77857C13.196 8.0754 13.0476 8.4508 13.0476 8.90476C13.0476 9.35873 13.196 9.73413 13.4929 10.031C13.7897 10.3278 14.1651 10.4762 14.6191 10.4762ZM7.28563 10.4762C7.73961 10.4762 8.11501 10.3278 8.41184 10.031C8.70867 9.73413 8.85708 9.35873 8.85708 8.90476C8.85708 8.4508 8.70867 8.0754 8.41184 7.77857C8.11501 7.48175 7.73961 7.33334 7.28563 7.33334C6.83166 7.33334 6.45626 7.48175 6.15943 7.77857C5.8626 8.0754 5.71418 8.4508 5.71418 8.90476C5.71418 9.35873 5.8626 9.73413 6.15943 10.031C6.45626 10.3278 6.83166 10.4762 7.28563 10.4762ZM10.9524 17.2857C12.1921 17.2857 13.2879 16.9452 14.2398 16.2643C15.1918 15.5833 15.8769 14.7016 16.2953 13.619H5.60942C6.02847 14.7016 6.71397 15.5833 7.66592 16.2643C8.61787 16.9452 9.71335 17.2857 10.9524 17.2857ZM19.3334 4.19048H18.2858C17.989 4.19048 17.74 4.08991 17.5388 3.88876C17.3377 3.68762 17.2375 3.43899 17.2382 3.14286C17.2382 2.84604 17.3387 2.59705 17.5399 2.39591C17.741 2.19477 17.9897 2.09454 18.2858 2.09524H19.3334V1.04762C19.3334 0.750797 19.434 0.501813 19.6351 0.30067C19.8363 0.0995274 20.0849 -0.000694788 20.3811 3.62498e-06C20.6779 3.62498e-06 20.9269 0.100575 21.128 0.301718C21.3292 0.502861 21.4294 0.751496 21.4287 1.04762V2.09524H22.4763C22.7732 2.09524 23.0221 2.19581 23.2233 2.39696C23.4244 2.5981 23.5247 2.84673 23.524 3.14286C23.524 3.43969 23.4234 3.68867 23.2222 3.88981C23.0211 4.09096 22.7725 4.19118 22.4763 4.19048H21.4287V5.2381C21.4287 5.53492 21.3281 5.78391 21.127 5.98505C20.9258 6.18619 20.6772 6.28642 20.3811 6.28572C20.0842 6.28572 19.8352 6.18515 19.6341 5.984C19.4329 5.78286 19.3327 5.53422 19.3334 5.2381V4.19048Z" />
</svg>
