<svg width="29" height="29" viewBox="0 0 29 29" fill="none" xmlns="http://www.w3.org/2000/xlink">
<!-- <svg width="29" height="29" viewBox="0 -3 32 32" fill="none" xmlns="http://www.w3.org/2000/svg"> -->
<path d="M 25.3374 14.0598 L 23.2924 10.9133 C 23.26 10.8156 23.2275 10.7288 23.195 10.6312 C 22.7947 5.9656 18.9428 2.4176 14.2578 2.4176 C 9.29145 2.4176 5.28809 6.4647 5.28809 11.4124 C 5.28809 14.3093 6.61893 17.1412 8.85866 19.0726 C 8.89112 19.1051 8.95603 19.1702 8.95603 19.257 L 8.95603 23.9551 C 8.95603 24.7689 9.55113 25.4199 10.3518 25.485 L 17.4929 25.485 C 17.8608 25.485 19.0185 25.3439 19.0185 23.966 L 19.0185 21.6874 L 21.0635 21.6874 C 22.2753 21.6874 23.2383 20.6892 23.2383 19.5066 L 23.2383 16.7723 L 23.8875 16.7723 C 24.5367 16.7723 25.0993 16.4251 25.4131 15.8718 C 25.7269 15.275 25.6944 14.5915 25.3482 14.0706 L 25.3374 14.0598 Z M 23.2275 14.7651 C 22.1239 14.7651 21.2258 15.6656 21.2258 16.7723 L 21.2258 19.5066 C 21.2258 19.5825 21.1501 19.6802 21.0527 19.6802 L 19.0077 19.6802 C 17.9041 19.6802 17.006 20.5807 17.006 21.6874 L 17.006 23.4777 L 10.9577 23.4777 L 10.9577 19.257 C 10.9577 18.9098 10.8712 18.2479 10.2761 17.6512 C 10.2436 17.6186 10.2003 17.5861 10.1679 17.5535 C 8.37176 16.002 7.28977 13.7017 7.28977 11.4232 C 7.28977 7.57142 10.4167 4.43573 14.2578 4.43573 C 17.9041 4.43573 20.8904 7.18081 21.2042 10.8156 C 21.215 10.9675 21.2475 11.1303 21.3016 11.2713 L 21.3448 11.4124 L 21.3881 11.5534 C 21.4422 11.7162 21.5179 11.8681 21.6153 12.02 L 23.4006 14.7651 L 23.2275 14.7651 Z"/>
<path d="M 94.75 50 C 94.75 56.213 89.514 61.25 83.054 61.25 L 16.946 61.25 C 10.486 61.25 5.25 56.213 5.25 50 L 5.25 50 C 5.25 43.787 10.486 38.75 16.945999999999998 38.75 L 83.053 38.75 C 89.514 38.75 94.75 43.787 94.75 50 L 94.75 50 z"/>
</svg>