<svg width="29" height="29" viewBox="0 -1 25 30" fill="none" xmlns="http://www.w3.org/2000/svg">
<g clip-path="url(#clip0_2649_1049)">
<path d="M25.3374 14.0598L23.2924 10.9133C23.26 10.8156 23.2275 10.7288 23.195 10.6312C22.7947 5.9656 18.9428 2.4176 14.2578 2.4176C9.29145 2.4176 5.28809 6.4647 5.28809 11.4124C5.28809 14.3093 6.61893 17.1412 8.85866 19.0726C8.89112 19.1051 8.95603 19.1702 8.95603 19.257V23.9551C8.95603 24.7689 9.55113 25.4199 10.3518 25.485H17.4929C17.8608 25.485 19.0185 25.3439 19.0185 23.966V21.6874H21.0635C22.2753 21.6874 23.2383 20.6892 23.2383 19.5066V16.7723H23.8875C24.5367 16.7723 25.0993 16.4251 25.4131 15.8718C25.7269 15.275 25.6944 14.5915 25.3482 14.0706L25.3374 14.0598ZM23.2275 14.7651C22.1239 14.7651 21.2258 15.6656 21.2258 16.7723V19.5066C21.2258 19.5825 21.1501 19.6802 21.0527 19.6802H19.0077C17.9041 19.6802 17.006 20.5807 17.006 21.6874V23.4777H10.9577V19.257C10.9577 18.9098 10.8712 18.2479 10.2761 17.6512C10.2436 17.6186 10.2003 17.5861 10.1679 17.5535C8.37176 16.002 7.28977 13.7017 7.28977 11.4232C7.28977 7.57142 10.4167 4.43573 14.2578 4.43573C17.9041 4.43573 20.8904 7.18081 21.2042 10.8156C21.215 10.9675 21.2475 11.1303 21.3016 11.2713L21.3448 11.4124L21.3881 11.5534C21.4422 11.7162 21.5179 11.8681 21.6153 12.02L23.4006 14.7651H23.2275Z"/>
<path d="M17.2968 10.2081H15.0571V7.96214C15.0571 7.40878 14.6135 6.96393 14.0616 6.96393C13.5098 6.96393 13.0662 7.40878 13.0662 7.96214V10.2081H10.8265C10.2747 10.2081 9.83105 10.653 9.83105 11.2063C9.83105 11.7597 10.2747 12.2045 10.8265 12.2045H13.0662V14.4505C13.0662 15.0039 13.5098 15.4487 14.0616 15.4487C14.6135 15.4487 15.0571 15.0039 15.0571 14.4505V12.2045H17.2968C17.8486 12.2045 18.2922 11.7597 18.2922 11.2063C18.2922 10.653 17.8486 10.2081 17.2968 10.2081Z"/>
</g>
</svg>
