<svg width="29" height="29" viewBox="0 -3 30 30" fill="none" xmlns="http://www.w3.org/2000/svg">
<!-- <g transform="scale(0.8)"> -->
<path d="M19 12.0824L16.5 6.5824L14.5 3.0824L10 1.0824L3.5 2.5824L0.5 10.5824L4 17.0824L5 22.0824L12.5 21.5824L13 18.0824H16.5L17.5 13.5824L19 12.0824ZM9.76899 7.79045H12.0087C12.5605 7.79045 13.0041 8.23531 13.0041 8.78867C13.0041 9.34202 12.5605 9.78688 12.0087 9.78688H9.76899V12.0329C9.76899 12.5862 9.32537 13.0311 8.77355 13.0311C8.22174 13.0311 7.77812 12.5862 7.77812 12.0329V9.78688H5.5384C4.98659 9.78688 4.54297 9.34202 4.54297 8.78867C4.54297 8.23531 4.98659 7.79045 5.5384 7.79045H7.77812V5.54448C7.77812 4.99112 8.22174 4.54626 8.77355 4.54626C9.32537 4.54626 9.76899 4.99112 9.76899 5.54448V7.79045Z" fill="#6FF1F6"/>
<path d="M20.0493 11.6422L18.0043 8.49565C17.9719 8.398 17.9394 8.3112 17.9069 8.21355C17.5066 3.54799 13.6547 0 8.9697 0C4.00337 0 0 4.0471 0 8.99476C0 11.8917 1.33085 14.7236 3.57057 16.655C3.60303 16.6875 3.66795 16.7526 3.66795 16.8394V21.5375C3.66795 22.3513 4.26304 23.0023 5.06372 23.0674H12.2049C12.5727 23.0674 13.7305 22.9263 13.7305 21.5484V19.2698H15.7754C16.9873 19.2698 17.9502 18.2716 17.9502 17.089V14.3547H18.5994C19.2486 14.3547 19.8113 14.0075 20.125 13.4542C20.4388 12.8574 20.4063 12.1738 20.0601 11.653L20.0493 11.6422ZM17.9394 12.3475C16.8358 12.3475 15.9377 13.248 15.9377 14.3547V17.089C15.9377 17.1649 15.862 17.2626 15.7646 17.2626H13.7196C12.616 17.2626 11.718 18.1631 11.718 19.2698V21.0601H5.66963V16.8394C5.66963 16.4922 5.58307 15.8303 4.98798 15.2336C4.95552 15.201 4.91224 15.1685 4.87978 15.1359C3.08367 13.5844 2.00168 11.2841 2.00168 9.00561C2.00168 5.15381 5.12864 2.01812 8.9697 2.01812C12.616 2.01812 15.6023 4.76321 15.9161 8.398C15.9269 8.5499 15.9594 8.71266 16.0135 8.85371L16.0567 8.99476L16.1 9.13581C16.1541 9.29856 16.2299 9.45047 16.3272 9.60237L18.1125 12.3475H17.9394Z"/>
<!-- </g> -->
</svg>
