<svg width="38" height="38" viewBox="0 0 29 29" fill="none" xmlns="http://www.w3.org/2000/svg">
<path d="M27.5941 4.72422C27.3747 4.41422 26.9858 4.28422 26.6268 4.38422L2.0953 10.9742C1.78617 11.0542 1.53686 11.3042 1.45709 11.6142C1.36734 11.9242 1.45709 12.2642 1.67647 12.4942L6.16394 17.2142V23.2942C6.16394 23.6542 6.37335 23.9842 6.71241 24.1342C7.04149 24.2742 7.4304 24.2142 7.69965 23.9742L10.3123 21.5742L13.9422 25.3942C14.1117 25.5742 14.3511 25.6742 14.6004 25.6742C14.6303 25.6742 14.6602 25.6742 14.6901 25.6742C14.9693 25.6442 15.2186 25.4842 15.3682 25.2542L27.624 5.76422C27.8234 5.44422 27.8135 5.03422 27.5841 4.73422L27.5941 4.72422ZM20.3244 7.97422L7.12126 15.5742L4.04984 12.3442L20.3244 7.97422ZM24.1138 7.90422L14.4408 23.2642L8.41764 16.9342L24.1238 7.90422H24.1138ZM9.03592 20.2342L7.97887 21.2042V19.1242L9.03592 20.2342Z" />
</svg>
